<?xml version="1.0" standalone="no"?>
<!DOCTYPE svg PUBLIC "-//W3C//DTD SVG 1.1//EN" "http://www.w3.org/Graphics/SVG/1.1/DTD/svg11.dtd" >
<svg>
<metadata>
Created by FontForge 20090622 at Wed Jul 24 11:51:27 2019
 By deploy user
Copyright (c) 2009-2011 by Accademia di Belle Arti di Urbino and students of MA course of Visual design. Some rights reserved.
</metadata>
<defs>
<font id="TitilliumWeb-Regular" horiz-adv-x="560" >
  <font-face 
    font-family="Titillium Web"
    font-weight="400"
    font-stretch="normal"
    units-per-em="1000"
    panose-1="0 0 5 0 0 0 0 0 0 0"
    ascent="800"
    descent="-200"
    x-height="500"
    cap-height="692"
    bbox="-224 -285 1067 1082"
    underline-thickness="30"
    underline-position="-80"
    unicode-range="U+0020-U+F6C3"
  />
<missing-glyph horiz-adv-x="235" 
 />
    <glyph glyph-name=".notdef" horiz-adv-x="235" 
 />
    <glyph glyph-name=".null" horiz-adv-x="0" 
 />
    <glyph glyph-name="nonmarkingreturn" horiz-adv-x="333" 
 />
    <glyph glyph-name="space" unicode=" " horiz-adv-x="220" 
 />
    <glyph glyph-name="exclam" unicode="!" horiz-adv-x="247" 
d="M83 0v112h82v-112h-82zM89 228l-5 464h79l-5 -464h-69z" />
    <glyph glyph-name="quotedbl" unicode="&#x22;" horiz-adv-x="373" 
d="M303 470h-67l-4 222h75zM137 470h-67l-4 222h75z" />
    <glyph glyph-name="numbersign" unicode="#" 
d="M536 174h-111v-174h-68v174h-154v-174h-68v174h-111v64h111v186h-111v64h111v178h68v-178h154v178h68v-178h111v-64h-111v-186h111v-64zM357 238v186h-154v-186h154z" />
    <glyph glyph-name="dollar" unicode="$" 
d="M494 194q0 -203 -211 -203h-15l-14 -115q-51 3 -51 7l14 111l-143 18l8 61q77 -11 143 -15l33 250q-102 24 -145.5 61.5t-43.5 123.5q0 177 212 177q15 0 23 -1l17 129h51l-17 -132l125 -15l-6 -62q-69 8 -127 13l-30 -233q97 -23 137 -59t40 -116zM143 497q0 -54 27 -77
t97 -40l29 225h-10q-143 0 -143 -108zM420 189q0 48 -25 71t-87 38l-31 -242h2q141 0 141 133z" />
    <glyph glyph-name="percent" unicode="%" 
d="M155 -4l205 685l48 -16l-205 -683zM138 670q110 0 110 -138q0 -71 -29 -106t-81 -35t-81 35t-29 106q0 138 110 138zM89 532q0 -90 49.5 -90t49.5 90q0 45 -11.5 66t-38 21t-38 -21t-11.5 -66zM313 132q0 137 109.5 137t109.5 -138q0 -70 -29 -105.5t-81 -35.5
t-80.5 35.5t-28.5 106.5zM373 132q0 -91 49 -91q28 0 39 22t11 68t-11 66.5t-38 20.5t-38.5 -20.5t-11.5 -65.5z" />
    <glyph glyph-name="ampersand" unicode="&#x26;" horiz-adv-x="688" 
d="M186 661q46 40 130 40t127.5 -40t43.5 -110.5t-35 -111t-119 -79.5l152 -150q22 64 28 162l73 -1q-13 -125 -46 -208l129 -122l-45 -50l-121 113q-69 -114 -209 -114t-196 54t-56 149.5t36.5 140t118.5 71.5q-35 40 -46 71t-11 78q0 67 46 107zM282 58q123 0 169 90
l-211 210q-66 -21 -94 -54t-28 -102q0 -144 164 -144zM215 542q0 -61 45 -109l29 -28q69 30 96 59t27 80q0 92 -98.5 92t-98.5 -94z" />
    <glyph glyph-name="quotesingle" unicode="'" horiz-adv-x="208" 
d="M70 470l-3 222h75l-5 -222h-67z" />
    <glyph glyph-name="parenleft" unicode="(" horiz-adv-x="264" 
d="M155 -125q-104 234 -104 426q0 96 26 208.5t52 176.5l26 64h72q-35 -92 -65 -227.5t-30 -221t24 -192t48 -170.5l23 -64h-72z" />
    <glyph glyph-name="parenright" unicode=")" horiz-adv-x="264" 
d="M202 431q11 -70 11 -148t-26 -184.5t-52 -164.5l-26 -59h-72q34 80 64.5 210.5t30.5 216t-23.5 197.5t-47.5 181l-24 70h72q66 -149 93 -319z" />
    <glyph glyph-name="asterisk" unicode="*" horiz-adv-x="420" 
d="M373 511h-132l41 -125l-49 -15l-41 126l-107 -79l-31 40l108 79l-106 77l31 42l106 -78l41 126l49 -16l-40 -127h130v-50z" />
    <glyph glyph-name="plus" unicode="+" 
d="M55 217v68h189v195h70v-195h191v-68h-191v-197h-70v197h-189z" />
    <glyph glyph-name="comma" unicode="," horiz-adv-x="223" 
d="M34 -123l46 230h83l-67 -230h-62z" />
    <glyph glyph-name="hyphen" unicode="-" horiz-adv-x="438" 
d="M68 240v70h303v-70h-303z" />
    <glyph glyph-name="period" unicode="." horiz-adv-x="216" 
d="M67 0v114h82v-114h-82z" />
    <glyph glyph-name="slash" unicode="/" horiz-adv-x="412" 
d="M32 10l282 698l67 -25l-282 -697z" />
    <glyph glyph-name="zero" unicode="0" 
d="M279 671q82 0 133 -31q108 -64 108 -320q0 -181 -60 -255.5t-180 -74.5t-180.5 73.5t-60.5 262t59.5 267t180.5 78.5zM280 602q-57 0 -90 -24q-71 -49 -71 -259q0 -148 39 -204.5t122 -56.5t122 57t39 211.5t-37.5 215t-123.5 60.5z" />
    <glyph glyph-name="one" unicode="1" 
d="M389 660v-660h-77v574l-170 -112l-35 58l210 140h72z" />
    <glyph glyph-name="two" unicode="2" 
d="M491 0h-422v65l193 203q50 52 73 79t41.5 64t18.5 74q0 64 -35 90t-109 26q-65 0 -145 -17l-26 -5l-6 64q95 27 196 27t152.5 -42.5t51.5 -134.5q0 -70 -31 -122t-107 -125l-176 -179h331v-67z" />
    <glyph glyph-name="three" unicode="3" 
d="M72 643q94 28 201.5 28t155.5 -41t48 -131q0 -46 -12.5 -66.5t-20 -31.5t-19.5 -21q-22 -17 -35 -24l-11 -7q58 -21 86 -53.5t28 -106.5q0 -101 -51.5 -150t-162.5 -49q-88 0 -186 20l-31 7l7 63q108 -22 202 -22q143 1 143 128q0 119 -136 124h-133v66h133q42 0 81 33.5
t39 88.5t-31 79.5t-104 24.5q-80 0 -158 -15l-26 -5z" />
    <glyph glyph-name="four" unicode="4" 
d="M360 0v129h-320v60l188 471h84l-191 -463h239v206h77v-206h84v-68h-84v-129h-77z" />
    <glyph glyph-name="five" unicode="5" 
d="M477 660v-70h-321l-18 -215q77 41 155 41q210 0 210 -195q0 -112 -58 -171t-163 -59q-84 0 -186 22l-33 7l9 61q115 -22 193.5 -22t118.5 40.5t40 113.5t-36.5 103.5t-103.5 30.5q-36 0 -75.5 -10t-60.5 -20l-21 -10l-53 10l18 343h385z" />
    <glyph glyph-name="six" unicode="6" 
d="M482 590q-90 12 -175 12t-131 -59t-46 -169l25 10q25 9 66.5 19t73.5 10q222 0 222 -205q0 -105 -60.5 -161.5t-170.5 -56.5q-236 0 -236 343q0 173 67.5 255t190.5 82q81 0 154 -12l27 -5zM290 344q-34 0 -74.5 -9.5t-63.5 -18.5l-23 -10q1 -114 38.5 -181t114.5 -67
t116 38.5t39 109t-38.5 104.5t-108.5 34z" />
    <glyph glyph-name="seven" unicode="7" 
d="M77 590v70h410v-101l-254 -569l-73 23l249 551v26h-332z" />
    <glyph glyph-name="eight" unicode="8" 
d="M278 671q110 0 174.5 -43.5t64.5 -128.5q0 -62 -25 -94.5t-85 -59.5q60 -27 90 -63.5t30 -102.5q0 -189 -247.5 -189t-247.5 178q0 71 27.5 108t86.5 69q-54 27 -78.5 61.5t-24.5 93.5q0 84 62.5 127.5t172.5 43.5zM114 181q0 -121 165.5 -121t165.5 127q0 53 -29.5 78.5
t-87.5 42.5h-105q-55 -15 -82 -44.5t-27 -82.5zM435 490q0 111 -155 111t-155 -110q0 -44 24 -71t74 -45h105q54 17 80.5 44t26.5 71z" />
    <glyph glyph-name="nine" unicode="9" 
d="M247 58q181 0 182 230q-100 -38 -172 -38q-216 0 -216 201q0 101 62 160t167 59q121 0 180 -89.5t59 -263t-66.5 -250.5t-195.5 -77q-75 0 -155 14l-26 4l7 62q90 -12 174 -12zM263 318q61 0 141 27l26 9q-3 248 -160 248q-70 0 -109.5 -40.5t-39.5 -110.5
q0 -133 142 -133z" />
    <glyph glyph-name="colon" unicode=":" horiz-adv-x="217" 
d="M67 322v114h82v-114h-82zM67 0v114h82v-114h-82z" />
    <glyph glyph-name="semicolon" unicode=";" horiz-adv-x="248" 
d="M93 107h84l-67 -230h-62zM88 322v114h81v-114h-81z" />
    <glyph glyph-name="less" unicode="&#x3c;" 
d="M477 409l-339 -157l339 -160v-79l-416 205v66l416 203v-78z" />
    <glyph glyph-name="equal" unicode="=" 
d="M64 309v69h432v-69h-432zM64 124v69h432v-69h-432z" />
    <glyph glyph-name="greater" unicode="&#x3e;" 
d="M421 252l-339 157v78l416 -203v-66l-416 -205v79z" />
    <glyph glyph-name="question" unicode="?" horiz-adv-x="447" 
d="M406 542q0 -65 -17.5 -98.5t-71 -78t-73.5 -71t-20 -58.5v-35h-63q-13 27 -13 61t23 63.5t74 73.5t68 70t17 72.5t-32 69.5t-101 23q-44 0 -129 -18l-26 -5l-5 61q101 30 167 30q103 0 152.5 -37.5t49.5 -122.5zM150 1v112h82v-112h-82z" />
    <glyph glyph-name="at" unicode="@" horiz-adv-x="977" 
d="M933 305v-13q0 -212 -67 -267q-24 -19 -48.5 -25t-56 -6t-54 6t-34.5 15q-24 18 -33 39q-98 -59 -174 -59q-37 0 -64.5 9t-55.5 34q-56 50 -56 195t45.5 208.5t157.5 63.5q43 0 97 -19l18 -7v16h75v-191q0 -175 11 -208q5 -13 14.5 -24t20.5 -13t38 -2t45.5 13t31.5 66
t13 156v14q0 185 -82 268t-272.5 83t-283 -94.5t-92.5 -307t88 -302.5t289 -90l143 10l3 -67q-94 -9 -146 -9q-116 0 -196.5 22t-139.5 75q-117 102 -117 367q0 241 115 351.5t338 110.5t326 -102.5t103 -315.5zM471 61q43 0 146 46q-9 54 -9 173v139q-60 20 -103 20
q-81 0 -110 -46t-29 -149q0 -183 105 -183z" />
    <glyph glyph-name="A" unicode="A" horiz-adv-x="596" 
d="M24 0l190 692h168l190 -692h-76l-50 178h-296l-50 -178h-76zM272 626l-105 -379h262l-105 379h-52z" />
    <glyph glyph-name="B" unicode="B" horiz-adv-x="616" 
d="M85 692h251q103 0 154.5 -42.5t51.5 -133.5q0 -65 -22.5 -101.5t-66.5 -57.5q110 -38 110 -163q0 -104 -55 -149t-159 -45h-264v692zM341 318h-179v-250h184q68 0 103.5 28.5t35.5 100.5q0 38 -14.5 64t-38.5 37q-44 20 -91 20zM333 624h-171v-239h178q64 0 93.5 30.5
t29.5 92t-31.5 89t-98.5 27.5z" />
    <glyph glyph-name="C" unicode="C" horiz-adv-x="544" 
d="M503 11q-103 -21 -185 -21t-132.5 22.5t-78 70t-38 109t-10.5 153.5t10.5 154.5t38 110.5t77.5 70t130 22t188 -22l-3 -65q-101 18 -180 18q-110 0 -145.5 -65.5t-35.5 -223.5q0 -79 6.5 -127t25.5 -86.5t55.5 -55t107 -16.5t166.5 18z" />
    <glyph glyph-name="D" unicode="D" horiz-adv-x="645" 
d="M332 0h-247v692h247q169 0 224 -134q32 -77 32 -202q0 -261 -130 -329q-52 -27 -126 -27zM509 356q0 199 -89 248q-36 20 -88 20h-170v-556h170q177 0 177 288z" />
    <glyph glyph-name="E" unicode="E" horiz-adv-x="553" 
d="M85 0v692h421v-68h-344v-239h284v-67h-284v-250h344v-68h-421z" />
    <glyph glyph-name="F" unicode="F" horiz-adv-x="526" 
d="M85 0v692h414v-68h-337v-270h285v-68h-285v-286h-77z" />
    <glyph glyph-name="G" unicode="G" horiz-adv-x="616" 
d="M359 285v69h191v-340q-126 -24 -225 -24q-151 0 -209.5 87t-58.5 268.5t58.5 269t207.5 87.5q93 0 193 -20l34 -6l-3 -64q-124 21 -215 21q-115 0 -155 -66.5t-40 -221t40 -221t154 -66.5q70 0 143 14v213h-115z" />
    <glyph glyph-name="H" unicode="H" horiz-adv-x="675" 
d="M514 0v313h-352v-313h-77v692h77v-310h352v310h76v-692h-76z" />
    <glyph glyph-name="I" unicode="I" horiz-adv-x="246" 
d="M85 0v692h77v-692h-77z" />
    <glyph glyph-name="J" unicode="J" horiz-adv-x="289" 
d="M18 -72v69q72 0 92.5 17.5t20.5 91.5v586h76l1 -597q0 -84 -28 -123q-23 -33 -91 -41q-27 -3 -71 -3z" />
    <glyph glyph-name="K" unicode="K" horiz-adv-x="569" 
d="M162 0h-77v692h77v-322l114 4l177 318h88l-198 -348l209 -344h-91l-184 306l-115 -4v-302z" />
    <glyph glyph-name="L" unicode="L" horiz-adv-x="479" 
d="M466 0h-381v692h77v-623h304v-69z" />
    <glyph glyph-name="M" unicode="M" horiz-adv-x="840" 
d="M85 0v692h139l196 -585l196 585h139v-692h-77v610h-14l-201 -585h-86l-201 585h-14v-610h-77z" />
    <glyph glyph-name="N" unicode="N" horiz-adv-x="676" 
d="M85 0v692h144l265 -624h21v624h76v-692h-141l-269 624h-19v-624h-77z" />
    <glyph glyph-name="O" unicode="O" horiz-adv-x="660" 
d="M176 124.5q40 -66.5 154.5 -66.5t154 65t39.5 218t-41 223t-153.5 70t-153 -69.5t-40.5 -221.5t40 -218.5zM545 73q-59 -83 -214.5 -83t-214.5 85t-59 267.5t60 271t213 88.5t213.5 -88t60.5 -273t-59 -268z" />
    <glyph glyph-name="P" unicode="P" horiz-adv-x="593" 
d="M338 233h-176v-233h-77v692h253q113 0 167 -55t54 -168q0 -236 -221 -236zM162 301h175q143 0 143 168q0 80 -34 117.5t-109 37.5h-175v-323z" />
    <glyph glyph-name="Q" unicode="Q" horiz-adv-x="660" 
d="M330 -10q-155 0 -214 85t-59 267.5t60 271t213 88.5t213.5 -88t60.5 -271q0 -127 -26 -203.5t-89 -113.5l85 -137l-72 -34l-88 144q-33 -9 -84 -9zM176 124.5q40 -66.5 154.5 -66.5t154 64.5t39.5 218t-41 223.5t-153.5 70t-153 -69.5t-40.5 -221.5t40 -218.5z" />
    <glyph glyph-name="R" unicode="R" horiz-adv-x="616" 
d="M162 265v-265h-77v692h256q110 0 165.5 -51t55.5 -159q0 -160 -127 -201l133 -281h-85l-125 265h-196zM342 333q141 0 141 145.5t-142 145.5h-179v-291h180z" />
    <glyph glyph-name="S" unicode="S" horiz-adv-x="542" 
d="M276 635q-150 0 -150 -113q0 -63 34.5 -86.5t140 -47t149.5 -61t44 -123.5q0 -213 -221 -213q-73 0 -183 17l-36 5l8 64q136 -18 207 -18q148 0 148 139q0 56 -32.5 80.5t-121.5 41.5q-117 25 -166 64.5t-49 132.5q0 186 223 186q73 0 175 -15l34 -5l-7 -65
q-139 17 -197 17z" />
    <glyph glyph-name="T" unicode="T" horiz-adv-x="526" 
d="M13 623v69h500v-69h-211v-623h-76v623h-213z" />
    <glyph glyph-name="U" unicode="U" horiz-adv-x="644" 
d="M157 208q0 -150 162 -150q84 0 126.5 35.5t42.5 114.5v484h76v-482q0 -116 -61.5 -168t-181.5 -52t-180.5 52t-60.5 168v482h77v-484z" />
    <glyph glyph-name="V" unicode="V" horiz-adv-x="582" 
d="M478 692h80l-181 -692h-172l-181 692h80l159 -624h56z" />
    <glyph glyph-name="W" unicode="W" horiz-adv-x="886" 
d="M30 692h80l118 -624h29l141 618h90l141 -618h29l118 624h79l-140 -692h-141l-131 591l-131 -591h-141z" />
    <glyph glyph-name="X" unicode="X" horiz-adv-x="558" 
d="M106 692l175 -296l176 296h83l-213 -351l213 -341h-87l-174 287l-177 -287h-83l214 339l-214 353h87z" />
    <glyph glyph-name="Y" unicode="Y" horiz-adv-x="538" 
d="M308 0h-77v291l-221 401h87l172 -324l172 324h87l-220 -401v-291z" />
    <glyph glyph-name="Z" unicode="Z" horiz-adv-x="536" 
d="M43 624v68h450v-90l-362 -514v-20h362v-69h-450v89l361 514v22h-361z" />
    <glyph glyph-name="bracketleft" unicode="[" horiz-adv-x="329" 
d="M289 749v-67h-134v-738h134v-67h-210v872h210z" />
    <glyph glyph-name="backslash" unicode="\" horiz-adv-x="436" 
d="M405 14l-67 -28l-308 692l67 29z" />
    <glyph glyph-name="bracketright" unicode="]" horiz-adv-x="329" 
d="M40 682v67h210v-872h-210v67h134v738h-134z" />
    <glyph glyph-name="asciicircum" unicode="^" 
d="M421 319l-143 267l-140 -267h-80l185 341h67l191 -341h-80z" />
    <glyph glyph-name="underscore" unicode="_" horiz-adv-x="632" 
d="M102 -92h428v-66h-428v66z" />
    <glyph glyph-name="grave" unicode="`" horiz-adv-x="236" 
d="M25 740l216 -98l-21 -51l-221 85z" />
    <glyph glyph-name="a" unicode="a" horiz-adv-x="501" 
d="M425 349v-256q3 -37 58 -44l-3 -59q-79 0 -119 40q-90 -40 -180 -40q-69 0 -105 39t-36 112t37 107.5t116 42.5l157 15v43q0 51 -22 73t-60 22q-80 0 -166 -10l-31 -3l-3 57q110 22 195 22t123.5 -39t38.5 -122zM117 145q0 -92 76 -92q68 0 134 23l23 8v165l-148 -14
q-45 -4 -65 -26t-20 -64z" />
    <glyph glyph-name="b" unicode="b" horiz-adv-x="526" 
d="M293 510q101 0 141.5 -57.5t40.5 -201.5t-50.5 -202.5t-185.5 -58.5q-42 0 -139 8l-28 3v717h74v-243q76 35 147 35zM238 57q98 0 129.5 44.5t31.5 150.5t-25 148.5t-89 42.5q-58 0 -119 -22l-20 -7v-352q65 -5 92 -5z" />
    <glyph glyph-name="c" unicode="c" horiz-adv-x="436" 
d="M259 510q33 0 112 -12l24 -3l-3 -61q-80 9 -118 9q-85 0 -115.5 -40.5t-30.5 -150t28.5 -152.5t118.5 -43l118 9l3 -62q-93 -14 -139 -14q-117 0 -161.5 60t-44.5 202.5t48 200t160 57.5z" />
    <glyph glyph-name="d" unicode="d" horiz-adv-x="529" 
d="M456 718v-718h-74v34q-77 -44 -152 -44q-40 0 -70 10t-56 36q-54 54 -54 199.5t48.5 210t160.5 64.5q58 0 123 -13v221h74zM196 64q18 -7 46.5 -7t64 9.5t55.5 18.5l20 9v339q-64 12 -119 12q-76 0 -106 -48.5t-30 -150.5q0 -116 35 -156q16 -19 34 -26z" />
    <glyph glyph-name="e" unicode="e" horiz-adv-x="505" 
d="M412 62l29 3l2 -59q-114 -16 -195 -16q-108 0 -153 62.5t-45 194.5q0 263 209 263q101 0 151 -56.5t50 -177.5l-4 -57h-330q0 -83 30 -123t104.5 -40t151.5 6zM385 279q0 92 -29.5 130t-96 38t-100 -40t-34.5 -128h260z" />
    <glyph glyph-name="f" unicode="f" horiz-adv-x="331" 
d="M168 435v-435h-75v435h-63v65h63v45q0 106 30 144.5t105 38.5l101 -7l-1 -62q-56 2 -92.5 2t-52 -24t-15.5 -93v-44h145v-65h-145z" />
    <glyph glyph-name="g" unicode="g" horiz-adv-x="514" 
d="M265 -235q-120 0 -167.5 32.5t-47.5 118.5q0 41 18 66.5t61 57.5q-28 19 -28 69q0 17 25 63l9 16q-79 36 -79 151q0 171 187 171q48 0 89 -10l15 -3l148 4v-64l-95 2q33 -33 33 -100q0 -94 -46.5 -131.5t-146.5 -37.5q-27 0 -49 4q-18 -44 -18 -57q0 -31 19 -38.5
t115 -7.5t138 -30t42 -117q0 -159 -222 -159zM124 -78q0 -53 29.5 -73.5t109 -20.5t114 22t34.5 73.5t-25 66.5t-98 15l-108 5q-33 -24 -44.5 -42t-11.5 -46zM157.5 255q26.5 -25 87.5 -25t87 25t26 84.5t-26 84.5t-87 25t-87.5 -25.5t-26.5 -84.5t26.5 -84z" />
    <glyph glyph-name="h" unicode="h" horiz-adv-x="537" 
d="M147 0h-75v718h75v-246q80 38 154 38q100 0 134.5 -54t34.5 -192v-264h-75v262q0 104 -20.5 142.5t-86.5 38.5q-63 0 -122 -23l-19 -7v-413z" />
    <glyph glyph-name="i" unicode="i" horiz-adv-x="219" 
d="M72 0v500h75v-500h-75zM72 613v87h75v-87h-75z" />
    <glyph glyph-name="j" unicode="j" horiz-adv-x="219" 
d="M73 13v487h74v-488q0 -92 -33 -138t-133 -97l-30 58q78 45 100 76.5t22 101.5zM73 613v87h74v-87h-74z" />
    <glyph glyph-name="k" unicode="k" horiz-adv-x="479" 
d="M147 0h-75v718h75v-424l78 4l143 202h85l-163 -230l170 -270h-85l-149 232l-79 -3v-229z" />
    <glyph glyph-name="l" unicode="l" horiz-adv-x="231" 
d="M78 0v718h75v-718h-75z" />
    <glyph glyph-name="m" unicode="m" horiz-adv-x="836" 
d="M147 0h-75v500h74v-35q75 45 146 45q93 0 130 -51q33 20 85.5 35.5t92.5 15.5q100 0 134.5 -53.5t34.5 -192.5v-264h-75v262q0 104 -20 142.5t-85 38.5q-33 0 -68 -9.5t-54 -18.5l-19 -9q13 -33 13 -146v-260h-75v258q0 108 -19.5 146.5t-85.5 38.5q-32 0 -65.5 -9.5
t-51.5 -18.5l-17 -9v-406z" />
    <glyph glyph-name="n" unicode="n" horiz-adv-x="537" 
d="M147 0h-75v500h74v-35q81 45 155 45q100 0 134.5 -54t34.5 -192v-264h-74v262q0 104 -20.5 142.5t-87.5 38.5q-32 0 -67.5 -9.5t-54.5 -18.5l-19 -9v-406z" />
    <glyph glyph-name="o" unicode="o" horiz-adv-x="528" 
d="M99 449q49 61 165.5 61t165 -61t48.5 -198t-46 -199t-168 -62t-168 62t-46 199t49 198zM153.5 99q26.5 -44 111 -44t110.5 43.5t26 153.5t-29 151.5t-107.5 41.5t-108 -41.5t-29.5 -151t26.5 -153.5z" />
    <glyph glyph-name="p" unicode="p" horiz-adv-x="527" 
d="M72 -222v722h74v-36q76 46 150 46q95 0 138 -60.5t43 -199.5t-50.5 -199.5t-167.5 -60.5q-61 0 -112 11v-223h-75zM285 443q-30 0 -64.5 -10t-54.5 -20l-19 -10v-337q71 -11 108 -11q81 0 113.5 46t32.5 150t-29.5 148t-86.5 44z" />
    <glyph glyph-name="q" unicode="q" horiz-adv-x="526" 
d="M238 -10q-101 0 -144.5 59t-43.5 200t52 201t184 60l167 -10v-722h-74v245q-70 -33 -141 -33zM287 445q-94 0 -127.5 -47t-33.5 -149.5t27.5 -147t92.5 -44.5q58 0 115 22l18 7v353q-62 6 -92 6z" />
    <glyph glyph-name="r" unicode="r" horiz-adv-x="346" 
d="M72 0v500h74v-68q87 60 183 79v-76q-42 -8 -87.5 -25t-69.5 -30l-25 -13v-367h-75z" />
    <glyph glyph-name="s" unicode="s" horiz-adv-x="465" 
d="M229 443q-109 0 -109 -76q0 -35 25 -49.5t114 -30t126 -43.5t37 -105t-49.5 -113t-144.5 -36q-62 0 -146 14l-30 5l4 65q114 -17 172 -17t88.5 18.5t30.5 62t-26 59t-114 29.5t-125 41t-37 100t51.5 108t128.5 35q61 0 153 -14l28 -5l-2 -64q-111 16 -175 16z" />
    <glyph glyph-name="t" unicode="t" horiz-adv-x="351" 
d="M331 435h-159v-239q0 -86 12.5 -113t59.5 -27l89 6l5 -62q-67 -11 -102 -11q-78 0 -108 38t-30 145v263h-71v65h71v153h74v-153h159v-65z" />
    <glyph glyph-name="u" unicode="u" horiz-adv-x="531" 
d="M384 500h75v-500h-75v35q-75 -45 -148 -45q-102 0 -135.5 53t-33.5 196v261h75v-260q0 -109 19 -146t86 -37q33 0 67 9.5t52 18.5l18 9v406z" />
    <glyph glyph-name="v" unicode="v" horiz-adv-x="481" 
d="M25 500h80l117 -435h37l121 435h77l-141 -500h-150z" />
    <glyph glyph-name="w" unicode="w" horiz-adv-x="762" 
d="M31 500h75l101 -435h16l119 425h78l119 -425h17l100 435h75l-119 -500h-125l-106 391l-106 -391h-125z" />
    <glyph glyph-name="x" unicode="x" horiz-adv-x="452" 
d="M22 500h82l122 -196l122 196h82l-159 -248l158 -252h-82l-121 195l-122 -195h-82l157 250z" />
    <glyph glyph-name="y" unicode="y" horiz-adv-x="483" 
d="M25 500h75l125 -435h33l126 435h75l-208 -722h-75l65 222h-74z" />
    <glyph glyph-name="z" unicode="z" horiz-adv-x="455" 
d="M42 433v67h371v-67l-280 -366h280v-67h-371v67l280 366h-280z" />
    <glyph glyph-name="braceleft" unicode="{" horiz-adv-x="352" 
d="M197 575l7 -123q0 -64 -21.5 -93t-83.5 -47q61 -18 83 -48.5t22 -93.5l-7 -116q0 -56 24.5 -84.5t90.5 -32.5l-2 -65q-101 4 -143.5 44.5t-42.5 130.5l7 122q0 43 -25 69.5t-82 42.5v61q57 13 82 39.5t25 69.5l-7 128q0 92 42.5 132t144.5 44l1 -65q-66 -4 -90.5 -31.5
t-24.5 -83.5z" />
    <glyph glyph-name="bar" unicode="|" horiz-adv-x="230" 
d="M78 -222v940h74v-940h-74z" />
    <glyph glyph-name="braceright" unicode="}" horiz-adv-x="352" 
d="M155 54l-7 116q0 63 22 93.5t83 48.5q-62 18 -83.5 47t-21.5 93l7 123q0 56 -24.5 83.5t-90.5 31.5l1 65q102 -4 144.5 -44t42.5 -132l-7 -128q0 -43 25 -69.5t82 -39.5v-61q-57 -16 -82 -42.5t-25 -69.5l7 -122q0 -90 -42.5 -130.5t-143.5 -44.5l-2 65q66 4 90.5 32.5
t24.5 84.5z" />
    <glyph glyph-name="asciitilde" unicode="~" 
d="M379 195q-27 0 -102.5 31t-94 31t-44.5 -11.5t-43 -23.5l-17 -12l-11 62q62 53 116 53q29 0 103.5 -30.5t93.5 -30.5q35 0 88 34l17 12l10 -61q-63 -54 -116 -54z" />
    <glyph glyph-name="uni00A0" unicode="&#xa0;" horiz-adv-x="220" 
 />
    <glyph glyph-name="exclamdown" unicode="&#xa1;" horiz-adv-x="228" 
d="M154 500v-112h-82v112h82zM148 272l5 -464h-79l5 464h69z" />
    <glyph glyph-name="cent" unicode="&#xa2;" 
d="M278 -81v117q-93 5 -135 52t-42 158t43.5 162.5t133.5 56.5v118h65v-121q39 0 85 -9l16 -3l-3 -60q-79 7 -129 7q-74 0 -103.5 -33.5t-29.5 -115.5t29.5 -113.5t109.5 -31.5l124 7l3 -61q-60 -9 -102 -11v-119h-65z" />
    <glyph glyph-name="sterling" unicode="&#xa3;" 
d="M445 592q-80 11 -126.5 11t-63.5 -28t-17 -108v-50h171v-65h-171v-286h154l77 16l13 -64l-82 -18h-320v66h85v286h-67v65h67v55q0 117 33.5 157.5t114.5 40.5q52 0 111 -12l22 -5z" />
    <glyph glyph-name="currency" unicode="&#xa4;" 
d="M379 101q-46 -30 -100 -30t-98 30l-70 -71l-53 53l70 70q-29 45 -29 98t29 100l-70 70l53 53l70 -71q44 30 98 30t100 -30l70 71l53 -53l-71 -70q30 -46 30 -100t-30 -98l71 -70l-53 -53zM280 137q47 0 81 34t34 81t-34 81t-81 34t-81 -34t-34 -81t34 -81t81 -34z" />
    <glyph glyph-name="yen" unicode="&#xa5;" 
d="M57 315v65h140l-174 280h86l172 -270l170 270h86l-171 -280h136v-65h-174l-8 -19v-68h183v-65h-183v-163h-77v163h-185v65h185v68l-8 19h-178z" />
    <glyph glyph-name="brokenbar" unicode="&#xa6;" horiz-adv-x="234" 
d="M80 718h74v-374h-74v374zM80 156h74v-378h-74v378z" />
    <glyph glyph-name="section" unicode="&#xa7;" horiz-adv-x="499" 
d="M418 571q-109 15 -165 15t-85 -22t-29 -70t30.5 -66.5t115.5 -34.5t121.5 -45t36.5 -97.5t-44 -132.5q37 -32 37 -100q0 -168 -191 -168q-64 0 -145 12l-30 5l7 63q109 -15 164 -15q123 0 123 99q0 45 -29 60.5t-117 32t-127 47.5t-39 101q0 39 21 76t37 50
q-44 32 -44 111q0 159 192 159q51 0 138 -13l26 -4zM160 354q-33 -55 -33 -93.5t25 -57.5t92.5 -31.5t97.5 -25.5q5 7 15 36.5t10 65.5t-25.5 54t-90 29.5t-91.5 22.5z" />
    <glyph glyph-name="dieresis" unicode="&#xa8;" horiz-adv-x="236" 
d="M-12 621v90h72v-90h-72zM188 621v90h73v-90h-73z" />
    <glyph glyph-name="copyright" unicode="&#xa9;" horiz-adv-x="645" 
d="M134.5 240q-75.5 79 -75.5 194.5t75 194t189 78.5t188.5 -79.5t74.5 -194.5t-74 -193.5t-188 -78.5t-189.5 79zM103 434q0 -96 62.5 -162.5t156.5 -66.5t157 66.5t63 162.5t-63 163t-156.5 67t-156.5 -67t-63 -163zM326 276q-65 0 -91 37.5t-26 120t26.5 120t91.5 37.5
q37 0 67 -7l10 -3l-4 -53q-38 6 -72.5 6t-46 -22.5t-11.5 -76t12.5 -78t47.5 -24.5l70 7l4 -52q-37 -12 -78 -12z" />
    <glyph glyph-name="ordfeminine" unicode="&#xaa;" horiz-adv-x="386" 
d="M302 560v-137q9 -11 30 -17l-2 -49q-38 0 -54 6t-29 20q-55 -26 -101 -26t-69 25t-23 67q0 80 96 86l88 6v22q0 22 -12 31t-37 9l-115 -7l-2 48q69 15 123 15t80.5 -22t26.5 -77zM120 450q0 -39 36 -39q29 0 70 13l12 4v67l-77 -5q-22 -2 -31.5 -11t-9.5 -29z" />
    <glyph glyph-name="guillemotleft" unicode="&#xab;" horiz-adv-x="539" 
d="M234 344l-124 -94l124 -105v-78l-189 151v60l189 143v-77zM472 344l-125 -94l125 -105v-78l-190 151v60l190 143v-77z" />
    <glyph glyph-name="logicalnot" unicode="&#xac;" 
d="M65 342h428v-225h-70v157h-358v68z" />
    <glyph glyph-name="registered" unicode="&#xae;" horiz-adv-x="645" 
d="M134.5 240q-75.5 79 -75.5 194.5t75 194t189 78.5t188.5 -79t74.5 -194.5t-74 -194t-188 -78.5t-189.5 79zM166 597q-63 -67 -63 -162.5t63 -162.5t156.5 -67t156.5 66.5t63 162.5t-63 163t-156.5 67t-156.5 -67zM271 389v-107h-58v303h110q57 0 85.5 -22t28.5 -66
t-11.5 -65.5t-39.5 -34.5l55 -115h-61l-50 107h-59zM270 538v-102h59q27 0 39 12t12 39q0 51 -62 51h-48z" />
    <glyph glyph-name="macron" unicode="&#xaf;" horiz-adv-x="236" 
d="M-14 624v59h275v-59h-275z" />
    <glyph glyph-name="degree" unicode="&#xb0;" 
d="M138 561q0 63 39.5 102t102.5 39t102.5 -39t39.5 -102t-39.5 -102t-102.5 -39t-102.5 39t-39.5 102zM214 628q-25 -26 -25 -67.5t25 -67t66 -25.5t67 25.5t26 67t-26 67.5t-67 26t-66 -26z" />
    <glyph glyph-name="plusminus" unicode="&#xb1;" 
d="M55 293v68h189v126h70v-126h191v-68h-191v-127h-70v127h-189zM55 106h450v-68h-450v68z" />
    <glyph glyph-name="twosuperior" unicode="&#xb2;" horiz-adv-x="280" 
d="M239 478h-209v55l88 87q51 49 51 83q0 37 -49 37l-85 -9l-2 57q59 12 107 12q95 0 95 -91q0 -33 -14 -57.5t-47 -54.5l-63 -61h128v-58z" />
    <glyph glyph-name="threesuperior" unicode="&#xb3;" horiz-adv-x="280" 
d="M136 800q105 0 105 -84q0 -51 -39 -73q24 -8 35.5 -24.5t11.5 -53.5q0 -97 -106 -97q-43 0 -95 8l-18 2l4 56q57 -8 103.5 -8t46.5 42.5t-47 42.5h-65v53h65q14 0 26 13t12 31q0 34 -45 34l-92 -7l-4 55q59 10 102 10z" />
    <glyph glyph-name="acute" unicode="&#xb4;" horiz-adv-x="268" 
d="M26 642l216 98l26 -64l-221 -85z" />
    <glyph glyph-name="mu" unicode="&#xb5;" 
d="M401 500h75v-500h-75v35q-75 -45 -140.5 -45t-101.5 17v-229h-75v722h75v-260q0 -109 19 -146t86 -37q33 0 67 9.5t52 18.5l18 9v406z" />
    <glyph glyph-name="paragraph" unicode="&#xb6;" horiz-adv-x="593" 
d="M411 0v627h-116v-627h-67v324h-7q-81 0 -133.5 51t-52.5 132t53 133t134 52h329v-65h-72v-627h-68z" />
    <glyph glyph-name="periodcentered" unicode="&#xb7;" horiz-adv-x="217" 
d="M68 229v114h82v-114h-82z" />
    <glyph glyph-name="cedilla" unicode="&#xb8;" horiz-adv-x="263" 
d="M221 -127q0 -90 -93 -90q-46 0 -74 5l-12 2l3 48q39 -3 66 -3q44 0 44 38q0 34 -44 34h-42v94h41v-50q59 0 85 -16t26 -62z" />
    <glyph glyph-name="onesuperior" unicode="&#xb9;" horiz-adv-x="280" 
d="M193 790v-312h-64v242l-68 -47l-29 47l101 70h60z" />
    <glyph glyph-name="ordmasculine" unicode="&#xba;" horiz-adv-x="380" 
d="M87.5 623q34.5 36 103 36t102 -36t33.5 -113q0 -153 -135 -153q-138 0 -138 153q0 77 34.5 113zM137.5 439.5q15.5 -21.5 53 -21.5t52 21.5t14.5 70.5t-14.5 68.5t-52 19.5t-53 -20t-15.5 -68.5t15.5 -70z" />
    <glyph glyph-name="guillemotright" unicode="&#xbb;" horiz-adv-x="539" 
d="M429 250l-125 94v77l190 -143v-60l-190 -151v78zM192 250l-125 94v77l189 -143v-60l-189 -151v78z" />
    <glyph glyph-name="onequarter" unicode="&#xbc;" horiz-adv-x="534" 
d="M198 790v-312h-64v242l-68 -47l-29 47l101 70h60zM35 28l392 632l40 -26l-393 -631zM412 -100v48h-141v54l69 210h70l-73 -206h75l5 89h58v-89h27v-58h-27v-48h-63z" />
    <glyph glyph-name="onehalf" unicode="&#xbd;" horiz-adv-x="529" 
d="M202 790v-312h-64v242l-68 -47l-29 47l101 70h60zM33 28l392 632l40 -26l-393 -631zM486 -100h-209v55l88 87q51 49 51 83q0 37 -49 37l-85 -9l-2 57q59 12 106 12q96 0 96 -91q0 -33 -14 -57.5t-47 -54.5l-63 -61h128v-58z" />
    <glyph glyph-name="threequarters" unicode="&#xbe;" horiz-adv-x="550" 
d="M155 800q105 0 105 -84q0 -51 -39 -73q24 -8 35.5 -24.5t11.5 -53.5q0 -97 -106 -97q-43 0 -96 8l-17 2l4 56q57 -8 103.5 -8t46.5 42.5t-47 42.5h-65v53h65q14 0 26 13t12 31q0 34 -45 34l-92 -7l-4 55q59 10 102 10zM52 28l392 632l40 -26l-393 -631zM429 -100v48h-141
v54l69 210h70l-73 -206h75l5 89h58v-89h27v-58h-27v-48h-63z" />
    <glyph glyph-name="questiondown" unicode="&#xbf;" horiz-adv-x="441" 
d="M38 -41q0 65 17.5 98.5t71 78t73.5 71t20 58.5v35h63q13 -27 13 -61t-23 -63.5t-74 -73.5t-68 -70t-17 -72.5t32 -69.5t101 -23q53 0 129 17l26 6l5 -61q-101 -30 -167 -30q-103 0 -152.5 37.5t-49.5 122.5zM294 500v-112h-82v112h82z" />
    <glyph glyph-name="Agrave" unicode="&#xc0;" horiz-adv-x="596" 
d="M24 0l190 692h168l190 -692h-76l-50 178h-296l-50 -178h-76zM272 626l-105 -379h262l-105 379h-52zM189 931l216 -100l-23 -53l-219 87z" />
    <glyph glyph-name="Aacute" unicode="&#xc1;" horiz-adv-x="596" 
d="M24 0l190 692h168l190 -692h-76l-50 178h-296l-50 -178h-76zM272 626l-105 -379h262l-105 379h-52zM186 831l216 100l26 -66l-219 -87z" />
    <glyph glyph-name="Acircumflex" unicode="&#xc2;" horiz-adv-x="596" 
d="M24 0l190 692h168l190 -692h-76l-50 178h-296l-50 -178h-76zM272 626l-105 -379h262l-105 379h-52zM130 791l134 135h65l134 -135h-84l-82 80l-83 -80h-84z" />
    <glyph glyph-name="Atilde" unicode="&#xc3;" horiz-adv-x="596" 
d="M24 0l190 692h168l190 -692h-76l-50 178h-296l-50 -178h-76zM272 626l-105 -379h262l-105 379h-52zM374 803q-21 0 -83 27t-75 27q-22 0 -61 -36l-13 -12l-17 56q19 22 45 40t49 18t84 -27t71 -27q20 0 58 35l12 11l18 -56q-47 -56 -88 -56z" />
    <glyph glyph-name="Adieresis" unicode="&#xc4;" horiz-adv-x="596" 
d="M24 0l190 692h168l190 -692h-76l-50 178h-296l-50 -178h-76zM272 626l-105 -379h262l-105 379h-52zM159 808v90h73v-90h-73zM363 808v90h72v-90h-72z" />
    <glyph glyph-name="Aring" unicode="&#xc5;" horiz-adv-x="596" 
d="M382 821q33 -28 33 -74t-28 -76l185 -671h-76l-50 178h-296l-50 -178h-76l184 669q-30 28 -30 76t33.5 76t85.5 28t85 -28zM272 626l-105 -379h262l-105 379h-52zM235 744q0 -44 43 -52h37q44 8 44 52q0 25 -16.5 39t-45.5 14q-62 0 -62 -53z" />
    <glyph glyph-name="AE" unicode="&#xc6;" horiz-adv-x="876" 
d="M408 0v175h-251l-58 -175h-79l224 696h585v-73h-345v-230h285v-73h-285v-247h345v-73h-421zM300 623l-122 -374h230l1 374h-109z" />
    <glyph glyph-name="Ccedilla" unicode="&#xc7;" horiz-adv-x="544" 
d="M433 -127q0 -90 -93 -90q-46 0 -74 5l-12 2l3 48q39 -3 66 -3q44 0 44 38q0 34 -44 34h-42v84q-129 9 -175.5 93.5t-46.5 259.5q0 93 10.5 155.5t38 110.5t77.5 70t130 22t188 -22l-3 -65q-101 18 -180 18q-110 0 -145.5 -65.5t-35.5 -223.5q0 -79 6.5 -127t25.5 -86.5
t55.5 -55t107 -16.5t166.5 18l3 -66q-92 -20 -181 -21v-39q59 0 85 -16t26 -62z" />
    <glyph glyph-name="Egrave" unicode="&#xc8;" horiz-adv-x="553" 
d="M85 0v692h421v-68h-344v-239h284v-67h-284v-250h344v-68h-421zM195 931l216 -100l-23 -53l-219 87z" />
    <glyph glyph-name="Eacute" unicode="&#xc9;" horiz-adv-x="553" 
d="M85 0v692h421v-68h-344v-239h284v-67h-284v-250h344v-68h-421zM176 831l216 100l26 -66l-219 -87z" />
    <glyph glyph-name="Ecircumflex" unicode="&#xca;" horiz-adv-x="553" 
d="M85 0v692h421v-68h-344v-239h284v-67h-284v-250h344v-68h-421zM127 791l134 135h65l134 -135h-84l-82 80l-83 -80h-84z" />
    <glyph glyph-name="Edieresis" unicode="&#xcb;" horiz-adv-x="553" 
d="M85 0v692h421v-68h-344v-239h284v-67h-284v-250h344v-68h-421zM157 808v90h73v-90h-73zM361 808v90h72v-90h-72z" />
    <glyph glyph-name="Igrave" unicode="&#xcc;" horiz-adv-x="246" 
d="M85 0v692h77v-692h-77zM6 931l216 -100l-23 -53l-219 87z" />
    <glyph glyph-name="Iacute" unicode="&#xcd;" horiz-adv-x="246" 
d="M85 0v692h77v-692h-77zM13 831l216 100l26 -66l-219 -87z" />
    <glyph glyph-name="Icircumflex" unicode="&#xce;" horiz-adv-x="246" 
d="M85 0v692h77v-692h-77zM-47 791l134 135h65l134 -135h-84l-82 80l-83 -80h-84z" />
    <glyph glyph-name="Idieresis" unicode="&#xcf;" horiz-adv-x="246" 
d="M85 0v692h77v-692h-77zM-15 808v90h73v-90h-73zM189 808v90h72v-90h-72z" />
    <glyph glyph-name="Eth" unicode="&#xd0;" horiz-adv-x="647" 
d="M20 311v73h68v312h247q141 0 198.5 -88t57.5 -249q0 -262 -131 -331q-51 -28 -125 -28h-247v311h-68zM511 359q0 194 -89 244q-35 20 -87 20h-171v-239h158v-73h-158v-238h171q176 0 176 286z" />
    <glyph glyph-name="Ntilde" unicode="&#xd1;" horiz-adv-x="676" 
d="M85 0v692h144l265 -624h21v624h76v-692h-141l-269 624h-19v-624h-77zM416 803q-21 0 -83 27t-75 27q-22 0 -61 -36l-13 -12l-17 56q19 22 45 40t49 18t84 -27t71 -27q20 0 58 35l12 11l18 -56q-47 -56 -88 -56z" />
    <glyph glyph-name="Ograve" unicode="&#xd2;" horiz-adv-x="660" 
d="M176 124.5q40 -66.5 154.5 -66.5t154 65t39.5 218t-41 223t-153.5 70t-153 -69.5t-40.5 -221.5t40 -218.5zM545 73q-59 -83 -214.5 -83t-214.5 85t-59 267.5t60 271t213 88.5t213.5 -88t60.5 -273t-59 -268zM227 931l216 -100l-23 -53l-219 87z" />
    <glyph glyph-name="Oacute" unicode="&#xd3;" horiz-adv-x="660" 
d="M176 124.5q40 -66.5 154.5 -66.5t154 65t39.5 218t-41 223t-153.5 70t-153 -69.5t-40.5 -221.5t40 -218.5zM545 73q-59 -83 -214.5 -83t-214.5 85t-59 267.5t60 271t213 88.5t213.5 -88t60.5 -273t-59 -268zM198 831l216 100l26 -66l-219 -87z" />
    <glyph glyph-name="Ocircumflex" unicode="&#xd4;" horiz-adv-x="660" 
d="M176 124.5q40 -66.5 154.5 -66.5t154 65t39.5 218t-41 223t-153.5 70t-153 -69.5t-40.5 -221.5t40 -218.5zM545 73q-59 -83 -214.5 -83t-214.5 85t-59 267.5t60 271t213 88.5t213.5 -88t60.5 -273t-59 -268zM164 791l134 135h65l134 -135h-84l-82 80l-83 -80h-84z" />
    <glyph glyph-name="Otilde" unicode="&#xd5;" horiz-adv-x="660" 
d="M176 124.5q40 -66.5 154.5 -66.5t154 65t39.5 218t-41 223t-153.5 70t-153 -69.5t-40.5 -221.5t40 -218.5zM545 73q-59 -83 -214.5 -83t-214.5 85t-59 267.5t60 271t213 88.5t213.5 -88t60.5 -273t-59 -268zM408 803q-21 0 -83 27t-75 27q-22 0 -61 -36l-13 -12l-17 56
q19 22 45 40t49 18t84 -27t71 -27q20 0 58 35l12 11l18 -56q-47 -56 -88 -56z" />
    <glyph glyph-name="Odieresis" unicode="&#xd6;" horiz-adv-x="660" 
d="M176 124.5q40 -66.5 154.5 -66.5t154 65t39.5 218t-41 223t-153.5 70t-153 -69.5t-40.5 -221.5t40 -218.5zM545 73q-59 -83 -214.5 -83t-214.5 85t-59 267.5t60 271t213 88.5t213.5 -88t60.5 -273t-59 -268zM192 808v90h73v-90h-73zM396 808v90h72v-90h-72z" />
    <glyph glyph-name="multiply" unicode="&#xd7;" 
d="M120 459l160 -162l161 163l48 -48l-163 -161l163 -161l-48 -48l-161 162l-161 -162l-48 48l162 161l-162 160z" />
    <glyph glyph-name="Oslash" unicode="&#xd8;" horiz-adv-x="660" 
d="M330 -10q-69 0 -120 17l-57 -123l-57 26l59 126q-53 40 -75.5 115t-22.5 192q0 182 60 270.5t213 88.5q75 0 126 -21l56 118l58 -24l-59 -127q93 -78 93 -305q0 -187 -59 -270t-215 -83zM176.5 564.5q-40.5 -69.5 -40.5 -234t52 -222.5l238 507q-38 19 -96 19
q-113 0 -153.5 -69.5zM330 58q115 0 154.5 65t39.5 226t-48 225l-235 -502q34 -14 89 -14z" />
    <glyph glyph-name="Ugrave" unicode="&#xd9;" horiz-adv-x="644" 
d="M157 208q0 -150 162 -150q84 0 126.5 35.5t42.5 114.5v484h76v-482q0 -116 -61.5 -168t-181.5 -52t-180.5 52t-60.5 168v482h77v-484zM222 931l216 -100l-23 -53l-219 87z" />
    <glyph glyph-name="Uacute" unicode="&#xda;" horiz-adv-x="644" 
d="M157 208q0 -150 162 -150q84 0 126.5 35.5t42.5 114.5v484h76v-482q0 -116 -61.5 -168t-181.5 -52t-180.5 52t-60.5 168v482h77v-484zM199 831l216 100l26 -66l-219 -87z" />
    <glyph glyph-name="Ucircumflex" unicode="&#xdb;" horiz-adv-x="644" 
d="M157 208q0 -150 162 -150q84 0 126.5 35.5t42.5 114.5v484h76v-482q0 -116 -61.5 -168t-181.5 -52t-180.5 52t-60.5 168v482h77v-484zM155 791l134 135h65l134 -135h-84l-82 80l-83 -80h-84z" />
    <glyph glyph-name="Udieresis" unicode="&#xdc;" horiz-adv-x="644" 
d="M157 208q0 -150 162 -150q84 0 126.5 35.5t42.5 114.5v484h76v-482q0 -116 -61.5 -168t-181.5 -52t-180.5 52t-60.5 168v482h77v-484zM184 808v90h73v-90h-73zM388 808v90h72v-90h-72z" />
    <glyph glyph-name="Yacute" unicode="&#xdd;" horiz-adv-x="538" 
d="M308 0h-77v291l-221 401h87l172 -324l172 324h87l-220 -401v-291zM167 831l216 100l26 -66l-219 -87z" />
    <glyph glyph-name="Thorn" unicode="&#xde;" horiz-adv-x="599" 
d="M337 195q144 0 144 166q0 78 -34.5 113.5t-109.5 35.5h-175v-315h175zM338 121h-176v-121h-77v696h77v-112h176q113 0 167.5 -55t54.5 -169.5t-55.5 -176.5t-166.5 -62z" />
    <glyph glyph-name="germandbls" unicode="&#xdf;" horiz-adv-x="574" 
d="M147 0h-75v545q0 101 45.5 142t149.5 41t149.5 -34t45.5 -110q0 -53 -19 -81.5t-59 -46t-51.5 -26.5t-11.5 -24.5t16.5 -28.5t81.5 -45t92.5 -64t27.5 -91q0 -102 -45.5 -144.5t-155.5 -42.5q-50 0 -110 11l-21 4l3 63q85 -11 122 -11q72 0 100.5 26.5t28.5 75t-21 70.5
t-86 53t-88 55t-23 61.5t18.5 58t57.5 37.5t52 35.5t13 57t-25.5 56.5t-92 18t-93 -26t-26.5 -99v-536z" />
    <glyph glyph-name="agrave" unicode="&#xe0;" horiz-adv-x="501" 
d="M425 349v-256q3 -37 58 -44l-3 -59q-79 0 -119 40q-90 -40 -180 -40q-69 0 -105 39t-36 112t37 107.5t116 42.5l157 15v43q0 51 -22 73t-60 22q-80 0 -166 -10l-31 -3l-3 57q110 22 195 22t123.5 -39t38.5 -122zM117 145q0 -92 76 -92q68 0 134 23l23 8v165l-148 -14
q-45 -4 -65 -26t-20 -64zM147 740l216 -98l-21 -51l-221 85z" />
    <glyph glyph-name="aacute" unicode="&#xe1;" horiz-adv-x="501" 
d="M425 349v-256q3 -37 58 -44l-3 -59q-79 0 -119 40q-90 -40 -180 -40q-69 0 -105 39t-36 112t37 107.5t116 42.5l157 15v43q0 51 -22 73t-60 22q-80 0 -166 -10l-31 -3l-3 57q110 22 195 22t123.5 -39t38.5 -122zM117 145q0 -92 76 -92q68 0 134 23l23 8v165l-148 -14
q-45 -4 -65 -26t-20 -64zM118 642l216 98l26 -64l-221 -85z" />
    <glyph glyph-name="acircumflex" unicode="&#xe2;" horiz-adv-x="501" 
d="M425 349v-256q3 -37 58 -44l-3 -59q-79 0 -119 40q-90 -40 -180 -40q-69 0 -105 39t-36 112t37 107.5t116 42.5l157 15v43q0 51 -22 73t-60 22q-80 0 -166 -10l-31 -3l-3 57q110 22 195 22t123.5 -39t38.5 -122zM117 145q0 -92 76 -92q68 0 134 23l23 8v165l-148 -14
q-45 -4 -65 -26t-20 -64zM95 592l123 140h51l124 -140h-75l-73 87l-75 -87h-75z" />
    <glyph glyph-name="atilde" unicode="&#xe3;" horiz-adv-x="501" 
d="M425 349v-256q3 -37 58 -44l-3 -59q-79 0 -119 40q-90 -40 -180 -40q-69 0 -105 39t-36 112t37 107.5t116 42.5l157 15v43q0 51 -22 73t-60 22q-80 0 -166 -10l-31 -3l-3 57q110 22 195 22t123.5 -39t38.5 -122zM117 145q0 -92 76 -92q68 0 134 23l23 8v165l-148 -14
q-45 -4 -65 -26t-20 -64zM307 612q-21 0 -72.5 23.5t-64.5 23.5q-23 0 -62 -30l-13 -10l-18 48q50 52 91 52q21 0 73 -23t63 -23q22 0 60 29l12 9l17 -48q-46 -51 -86 -51z" />
    <glyph glyph-name="adieresis" unicode="&#xe4;" horiz-adv-x="501" 
d="M425 349v-256q3 -37 58 -44l-3 -59q-79 0 -119 40q-90 -40 -180 -40q-69 0 -105 39t-36 112t37 107.5t116 42.5l157 15v43q0 51 -22 73t-60 22q-80 0 -166 -10l-31 -3l-3 57q110 22 195 22t123.5 -39t38.5 -122zM117 145q0 -92 76 -92q68 0 134 23l23 8v165l-148 -14
q-45 -4 -65 -26t-20 -64zM105 621v90h72v-90h-72zM305 621v90h73v-90h-73z" />
    <glyph glyph-name="aring" unicode="&#xe5;" horiz-adv-x="501" 
d="M425 349v-256q3 -37 58 -44l-3 -59q-79 0 -119 40q-90 -40 -180 -40q-69 0 -105 39t-36 112t37 107.5t116 42.5l157 15v43q0 51 -22 73t-60 22q-80 0 -166 -10l-31 -3l-3 57q110 22 195 22t123.5 -39t38.5 -122zM117 145q0 -92 76 -92q68 0 134 23l23 8v165l-148 -14
q-45 -4 -65 -26t-20 -64zM151 645q0 44 30 74t73.5 30t73.5 -30t30 -74t-29.5 -74t-73.5 -30t-74 30t-30 74zM216 684.5q-16 -16.5 -16 -40t16 -40t39 -16.5t39 16.5t16 40t-16 40t-39 16.5t-39 -16.5z" />
    <glyph glyph-name="ae" unicode="&#xe6;" horiz-adv-x="804" 
d="M710 65l29 2l2 -61q-113 -16 -203 -16t-138 54l-32 -14q-87 -40 -192 -40q-67 0 -101.5 39.5t-34.5 116.5t41 107.5t140 40.5l129 12v41q0 91 -87 91q-66 0 -159 -8l-31 -2l-3 67q119 15 197 15q102 0 135 -73q48 73 152.5 73t154.5 -56.5t50 -177.5l-4 -58h-330
q0 -82 30 -121t91.5 -39t163.5 7zM188 55q46 0 105 14.5t74 22.5q-19 51 -19 153l-146 -12q-44 -4 -64.5 -25t-20.5 -63q0 -90 71 -90zM425 279h259q0 89 -29.5 126.5t-96 37.5t-100 -39t-33.5 -125z" />
    <glyph glyph-name="ccedilla" unicode="&#xe7;" horiz-adv-x="436" 
d="M360 -127q0 -90 -93 -90q-46 0 -75 5l-11 2l3 48q39 -3 66 -3q44 0 44 38q0 34 -44 34h-42v86q-88 10 -122.5 71t-34.5 196t48 192.5t160 57.5q33 0 112 -12l24 -3l-3 -61q-80 9 -118 9q-85 0 -115.5 -40.5t-30.5 -150t28.5 -152.5t118.5 -43l118 9l3 -62
q-93 -14 -139 -14h-8v-39q59 0 85 -16t26 -62z" />
    <glyph glyph-name="egrave" unicode="&#xe8;" horiz-adv-x="505" 
d="M412 62l29 3l2 -59q-114 -16 -195 -16q-108 0 -153 62.5t-45 194.5q0 263 209 263q101 0 151 -56.5t50 -177.5l-4 -57h-330q0 -83 30 -123t104.5 -40t151.5 6zM385 279q0 92 -29.5 130t-96 38t-100 -40t-34.5 -128h260zM147 741l216 -98l-21 -51l-221 85z" />
    <glyph glyph-name="eacute" unicode="&#xe9;" horiz-adv-x="505" 
d="M412 62l29 3l2 -59q-114 -16 -195 -16q-108 0 -153 62.5t-45 194.5q0 263 209 263q101 0 151 -56.5t50 -177.5l-4 -57h-330q0 -83 30 -123t104.5 -40t151.5 6zM385 279q0 92 -29.5 130t-96 38t-100 -40t-34.5 -128h260zM145 642l216 98l26 -64l-221 -85z" />
    <glyph glyph-name="ecircumflex" unicode="&#xea;" horiz-adv-x="505" 
d="M412 62l29 3l2 -59q-114 -16 -195 -16q-108 0 -153 62.5t-45 194.5q0 263 209 263q101 0 151 -56.5t50 -177.5l-4 -57h-330q0 -83 30 -123t104.5 -40t151.5 6zM385 279q0 92 -29.5 130t-96 38t-100 -40t-34.5 -128h260zM112 592l123 140h51l124 -140h-75l-73 87l-75 -87
h-75z" />
    <glyph glyph-name="edieresis" unicode="&#xeb;" horiz-adv-x="505" 
d="M412 62l29 3l2 -59q-114 -16 -195 -16q-108 0 -153 62.5t-45 194.5q0 263 209 263q101 0 151 -56.5t50 -177.5l-4 -57h-330q0 -83 30 -123t104.5 -40t151.5 6zM385 279q0 92 -29.5 130t-96 38t-100 -40t-34.5 -128h260zM120 621v90h72v-90h-72zM320 621v90h73v-90h-73z
" />
    <glyph glyph-name="igrave" unicode="&#xec;" horiz-adv-x="219" 
d="M72 0v500h75v-500h-75zM-34 740l216 -98l-21 -51l-221 85z" />
    <glyph glyph-name="iacute" unicode="&#xed;" horiz-adv-x="219" 
d="M38 642l216 98l26 -64l-221 -85zM72 500h75v-500h-75v500z" />
    <glyph glyph-name="icircumflex" unicode="&#xee;" horiz-adv-x="219" 
d="M72 500h75v-500h-75v500zM-42 592l123 140h51l124 -140h-75l-73 87l-75 -87h-75z" />
    <glyph glyph-name="idieresis" unicode="&#xef;" horiz-adv-x="219" 
d="M72 500h75v-500h-75v500zM-31 621v90h72v-90h-72zM169 621v90h73v-90h-73z" />
    <glyph glyph-name="eth" unicode="&#xf0;" horiz-adv-x="548" 
d="M342 643q154 -98 154 -291.5t-54 -277t-177 -83.5q-107 0 -165 57.5t-58 161t55 162t155 58.5q65 0 140 -27l25 -9q-7 130 -137 207l-122 -81l-33 47l95 64q-54 23 -124 41l15 56q100 -20 173 -54l101 68l34 -47zM418 327q-90 36 -158 36t-103.5 -41.5t-35.5 -111.5
t36.5 -110.5t113 -40.5t111.5 59t36 209z" />
    <glyph glyph-name="ntilde" unicode="&#xf1;" horiz-adv-x="537" 
d="M72 0v500h74v-35l22 11q23 12 61.5 23t71.5 11q100 0 134.5 -54t34.5 -192v-264h-74v262q0 104 -20.5 142.5t-90 38.5t-138.5 -37v-406h-75zM349 612q-21 0 -72.5 23.5t-64.5 23.5q-23 0 -62 -30l-13 -10l-18 48q50 52 91 52q21 0 73 -23t63 -23q22 0 60 29l12 9l17 -48
q-46 -51 -86 -51z" />
    <glyph glyph-name="ograve" unicode="&#xf2;" horiz-adv-x="528" 
d="M99 449q49 61 165.5 61t165 -61t48.5 -198t-46 -199t-168 -62t-168 62t-46 199t49 198zM153.5 99q26.5 -44 111 -44t110.5 43.5t26 153.5t-29 151.5t-107.5 41.5t-108 -41.5t-29.5 -151t26.5 -153.5zM167 740l216 -98l-21 -51l-221 85z" />
    <glyph glyph-name="oacute" unicode="&#xf3;" horiz-adv-x="528" 
d="M429.5 449q48.5 -61 48.5 -198t-46 -199t-168 -62t-168 62t-46 199t49 198t165.5 61t165 -61zM375 98.5q26 43.5 26 153.5t-29 151.5t-107.5 41.5t-108 -41.5t-29.5 -151t26.5 -153.5t111 -44t110.5 43.5zM154 642l216 98l26 -64l-221 -85z" />
    <glyph glyph-name="ocircumflex" unicode="&#xf4;" horiz-adv-x="528" 
d="M429.5 449q48.5 -61 48.5 -198t-46 -199t-168 -62t-168 62t-46 199t49 198t165.5 61t165 -61zM375 98.5q26 43.5 26 153.5t-29 151.5t-107.5 41.5t-108 -41.5t-29.5 -151t26.5 -153.5t111 -44t110.5 43.5zM113 592l123 140h51l124 -140h-75l-73 87l-75 -87h-75z" />
    <glyph glyph-name="otilde" unicode="&#xf5;" horiz-adv-x="528" 
d="M429.5 449q48.5 -61 48.5 -198t-46 -199t-168 -62t-168 62t-46 199t49 198t165.5 61t165 -61zM375 98.5q26 43.5 26 153.5t-29 151.5t-107.5 41.5t-108 -41.5t-29.5 -151t26.5 -153.5t111 -44t110.5 43.5zM335 612q-21 0 -72.5 23.5t-64.5 23.5q-23 0 -62 -30l-13 -10
l-18 48q50 52 91 52q21 0 73 -23t63 -23q22 0 60 29l12 9l17 -48q-46 -51 -86 -51z" />
    <glyph glyph-name="odieresis" unicode="&#xf6;" horiz-adv-x="528" 
d="M429.5 449q48.5 -61 48.5 -198t-46 -199t-168 -62t-168 62t-46 199t49 198t165.5 61t165 -61zM375 98.5q26 43.5 26 153.5t-29 151.5t-107.5 41.5t-108 -41.5t-29.5 -151t26.5 -153.5t111 -44t110.5 43.5zM125 621v90h72v-90h-72zM325 621v90h73v-90h-73z" />
    <glyph glyph-name="divide" unicode="&#xf7;" 
d="M120 281v73h57v48h206v-48h56v-73h-319zM242 30v101h75v-101h-75z" />
    <glyph glyph-name="oslash" unicode="&#xf8;" horiz-adv-x="528" 
d="M264 510q39 0 74 -8l43 104l50 -19l-43 -104q90 -50 90 -227q0 -142 -46 -204t-168 -62q-41 0 -76 8l-43 -110l-50 18l44 109q-49 27 -69 85t-20 156q0 132 49 193t165 61zM264 445q-78 0 -107.5 -41.5t-29.5 -131t8.5 -130.5t33.5 -62l145 359q-21 6 -50 6zM264 55
q85 0 111 43.5t26 162t-42 156.5l-146 -357q18 -5 51 -5z" />
    <glyph glyph-name="ugrave" unicode="&#xf9;" horiz-adv-x="531" 
d="M384 500h75v-500h-75v35q-75 -45 -148 -45q-102 0 -135.5 53t-33.5 196v261h75v-260q0 -109 19 -146t86 -37q33 0 67 9.5t52 18.5l18 9v406zM140 740l216 -98l-21 -51l-221 85z" />
    <glyph glyph-name="uacute" unicode="&#xfa;" horiz-adv-x="531" 
d="M459 500v-500h-75v35l-21 -11q-21 -12 -58 -23t-69 -11q-102 0 -135.5 53t-33.5 196v261h75v-260q0 -109 19 -146t89.5 -37t133.5 37v406h75zM155 642l216 98l26 -64l-221 -85z" />
    <glyph glyph-name="ucircumflex" unicode="&#xfb;" horiz-adv-x="531" 
d="M459 500v-500h-75v35l-21 -11q-21 -12 -58 -23t-69 -11q-102 0 -135.5 53t-33.5 196v261h75v-260q0 -109 19 -146t89.5 -37t133.5 37v406h75zM105 592l123 140h51l124 -140h-75l-73 87l-75 -87h-75z" />
    <glyph glyph-name="udieresis" unicode="&#xfc;" horiz-adv-x="531" 
d="M459 500v-500h-75v35l-21 -11q-21 -12 -58 -23t-69 -11q-102 0 -135.5 53t-33.5 196v261h75v-260q0 -109 19 -146t89.5 -37t133.5 37v406h75zM132 621v90h72v-90h-72zM332 621v90h73v-90h-73z" />
    <glyph glyph-name="yacute" unicode="&#xfd;" horiz-adv-x="483" 
d="M25 500h75l125 -435h33l126 435h75l-208 -722h-75l65 222h-74zM154 642l216 98l26 -64l-221 -85z" />
    <glyph glyph-name="thorn" unicode="&#xfe;" horiz-adv-x="527" 
d="M244 55q94 0 124.5 45.5t30.5 151t-24.5 148.5t-88.5 43q-58 0 -120 -22l-19 -7v-353q65 -6 97 -6zM293 510q101 0 142 -57.5t41 -200.5t-49.5 -202.5t-178.5 -59.5l-101 7v-219h-75v940h75v-243q75 35 146 35z" />
    <glyph glyph-name="ydieresis" unicode="&#xff;" horiz-adv-x="483" 
d="M25 500h75l125 -435h33l126 435h75l-208 -722h-75l65 222h-74zM104 621v90h72v-90h-72zM304 621v90h73v-90h-73z" />
    <glyph glyph-name="Amacron" unicode="&#x100;" horiz-adv-x="596" 
d="M24 0l190 692h168l190 -692h-76l-50 178h-296l-50 -178h-76zM272 626l-105 -379h262l-105 379h-52zM141 812v58h311v-58h-311z" />
    <glyph glyph-name="amacron" unicode="&#x101;" horiz-adv-x="501" 
d="M425 349v-256q3 -37 58 -44l-3 -59q-79 0 -119 40q-90 -40 -180 -40q-69 0 -105 39t-36 112t37 107.5t116 42.5l157 15v43q0 51 -22 73t-60 22q-80 0 -166 -10l-31 -3l-3 57q110 22 195 22t123.5 -39t38.5 -122zM117 145q0 -92 76 -92q68 0 134 23l23 8v165l-148 -14
q-45 -4 -65 -26t-20 -64zM112 624v59h275v-59h-275z" />
    <glyph glyph-name="Abreve" unicode="&#x102;" horiz-adv-x="596" 
d="M24 0l190 692h168l190 -692h-76l-50 178h-296l-50 -178h-76zM272 626l-105 -379h262l-105 379h-52zM234.5 864q25.5 -21 62 -21t61.5 21t26 54h70q-3 -59 -46 -95t-112 -36t-111.5 36t-45.5 95h69q1 -33 26.5 -54z" />
    <glyph glyph-name="abreve" unicode="&#x103;" horiz-adv-x="503" 
d="M425 347v-246q1 -39 57 -46l-2 -65q-82 0 -119 38l-25 -10q-25 -9 -71 -18.5t-89 -9.5q-65 0 -100.5 40t-35.5 112t37 107t116 42l157 15v41q0 91 -87 91q-73 0 -191 -13l-3 65l32 5q96 15 166 15q80 0 119 -39.5t39 -123.5zM188 55q75 0 162 30v160l-148 -12
q-85 -8 -85 -88q0 -43 18.5 -66.5t52.5 -23.5zM192.5 678.5q21.5 -20.5 60 -20.5t60.5 20.5t23 54.5h77q-3 -63 -45.5 -102.5t-115 -39.5t-115 39.5t-45.5 102.5h77q2 -34 23.5 -54.5z" />
    <glyph glyph-name="Aogonek" unicode="&#x104;" horiz-adv-x="596" 
d="M494 -102q0 -19 11.5 -31t29.5 -12l50 6l7 -58q-45 -9 -82 -9t-63 23.5t-26 59t25 69t50 55.5l-50 177h-296l-50 -178h-76l190 692h168l190 -692h-8q-70 -70 -70 -102zM272 626l-105 -379h262l-105 379h-52z" />
    <glyph glyph-name="aogonek" unicode="&#x105;" horiz-adv-x="500" 
d="M425 349v-256q3 -37 58 -44l-3 -59q-12 0 -34 2q-61 -64 -61 -94q0 -19 11.5 -31t29.5 -12l50 6l7 -58q-45 -9 -82 -9t-63 23.5t-26 55.5t19 62q27 43 62 71q-16 8 -32 24q-90 -40 -180 -40q-69 0 -105 39t-36 112t37 107.5t116 42.5l157 15v43q0 51 -22 73t-60 22
q-80 0 -166 -10l-31 -3l-3 57q110 22 195 22t123.5 -39t38.5 -122zM117 145q0 -92 76 -92q68 0 134 23l23 8v165l-148 -14q-45 -4 -65 -26t-20 -64z" />
    <glyph glyph-name="Cacute" unicode="&#x106;" horiz-adv-x="544" 
d="M503 11q-103 -21 -185 -21t-132.5 22.5t-78 70t-38 109t-10.5 153.5t10.5 154.5t38 110.5t77.5 70t130 22t188 -22l-3 -65q-101 18 -180 18q-110 0 -145.5 -65.5t-35.5 -223.5q0 -79 6.5 -127t25.5 -86.5t55.5 -55t107 -16.5t166.5 18zM181 831l216 100l26 -66l-219 -87z
" />
    <glyph glyph-name="cacute" unicode="&#x107;" horiz-adv-x="436" 
d="M259 510q33 0 112 -12l24 -3l-3 -61q-80 9 -118 9q-85 0 -115.5 -40.5t-30.5 -150t28.5 -152.5t118.5 -43l118 9l3 -62q-93 -14 -139 -14q-117 0 -161.5 60t-44.5 202.5t48 200t160 57.5zM126 642l216 98l26 -64l-221 -85z" />
    <glyph glyph-name="Ccircumflex" unicode="&#x108;" horiz-adv-x="544" 
d="M503 11q-103 -21 -185 -21t-132.5 22.5t-78 70t-38 109t-10.5 153.5t10.5 154.5t38 110.5t77.5 70t130 22t188 -22l-3 -65q-101 18 -180 18q-110 0 -145.5 -65.5t-35.5 -223.5q0 -79 6.5 -127t25.5 -86.5t55.5 -55t107 -16.5t166.5 18zM144 791l134 135h65l134 -135h-84
l-82 80l-83 -80h-84z" />
    <glyph glyph-name="ccircumflex" unicode="&#x109;" horiz-adv-x="436" 
d="M259 510q33 0 112 -12l24 -3l-3 -61q-80 9 -118 9q-85 0 -115.5 -40.5t-30.5 -150t28.5 -152.5t118.5 -43l118 9l3 -62q-93 -14 -139 -14q-117 0 -161.5 60t-44.5 202.5t48 200t160 57.5zM83 592l123 140h51l124 -140h-75l-73 87l-75 -87h-75z" />
    <glyph glyph-name="Cdotaccent" unicode="&#x10a;" horiz-adv-x="544" 
d="M503 11q-103 -21 -185 -21t-132.5 22.5t-78 70t-38 109t-10.5 153.5t10.5 154.5t38 110.5t77.5 70t130 22t188 -22l-3 -65q-101 18 -180 18q-110 0 -145.5 -65.5t-35.5 -223.5q0 -79 6.5 -127t25.5 -86.5t55.5 -55t107 -16.5t166.5 18zM255 798v87h74v-87h-74z" />
    <glyph glyph-name="cdotaccent" unicode="&#x10b;" horiz-adv-x="436" 
d="M259 510q33 0 112 -12l24 -3l-3 -61q-80 9 -118 9q-85 0 -115.5 -40.5t-30.5 -150t28.5 -152.5t118.5 -43l118 9l3 -62q-93 -14 -139 -14q-117 0 -161.5 60t-44.5 202.5t48 200t160 57.5zM214 609v87h74v-87h-74z" />
    <glyph glyph-name="Ccaron" unicode="&#x10c;" horiz-adv-x="544" 
d="M503 11q-103 -21 -185 -21t-132.5 22.5t-78 70t-38 109t-10.5 153.5t10.5 154.5t38 110.5t77.5 70t130 22t188 -22l-3 -65q-101 18 -180 18q-110 0 -145.5 -65.5t-35.5 -223.5q0 -79 6.5 -127t25.5 -86.5t55.5 -55t107 -16.5t166.5 18zM271 791l-134 135h84l83 -80l82 80
h84l-134 -135h-65z" />
    <glyph glyph-name="ccaron" unicode="&#x10d;" horiz-adv-x="436" 
d="M259 510q33 0 112 -12l24 -3l-3 -61q-80 9 -118 9q-85 0 -115.5 -40.5t-30.5 -150t28.5 -152.5t118.5 -43l118 9l3 -62q-93 -14 -139 -14q-117 0 -161.5 60t-44.5 202.5t48 200t160 57.5zM214 592l-123 140h74l75 -87l74 87h75l-125 -140h-50z" />
    <glyph glyph-name="Dcaron" unicode="&#x10e;" horiz-adv-x="645" 
d="M332 0h-247v692h247q169 0 224 -134q32 -77 32 -202q0 -261 -130 -329q-52 -27 -126 -27zM509 356q0 199 -89 248q-36 20 -88 20h-170v-556h170q177 0 177 288zM262 791l-134 135h84l83 -80l82 80h84l-134 -135h-65z" />
    <glyph glyph-name="dcaron" unicode="&#x10f;" horiz-adv-x="575" 
d="M558 683h74l-49 -207h-65zM456 718v-718h-74v34q-77 -44 -152 -44q-40 0 -70 10t-56 36q-54 54 -54 199.5t48.5 210t160.5 64.5q58 0 123 -13v221h74zM196 64q18 -7 46.5 -7t64 9.5t55.5 18.5l20 9v339q-64 12 -119 12q-76 0 -106 -48.5t-30 -150.5q0 -116 35 -156
q16 -19 34 -26z" />
    <glyph glyph-name="Dcroat" unicode="&#x110;" horiz-adv-x="647" 
d="M20 311v73h68v312h247q141 0 198.5 -88t57.5 -249q0 -262 -131 -331q-51 -28 -125 -28h-247v311h-68zM511 359q0 194 -89 244q-35 20 -87 20h-171v-239h158v-73h-158v-238h171q176 0 176 286z" />
    <glyph glyph-name="dcroat" unicode="&#x111;" horiz-adv-x="529" 
d="M456 718v-30h23v-66h-23v-622h-74v34q-77 -44 -152 -44q-40 0 -70 10t-56 36q-54 54 -54 199.5t48.5 210t160.5 64.5q58 0 123 -13v125h-194v66h194v30h74zM196 64q18 -7 46.5 -7t64 9.5t55.5 18.5l20 9v339q-64 12 -119 12q-76 0 -106 -48.5t-30 -150.5q0 -116 35 -156
q16 -19 34 -26z" />
    <glyph glyph-name="Emacron" unicode="&#x112;" horiz-adv-x="553" 
d="M85 0v692h421v-68h-344v-239h284v-67h-284v-250h344v-68h-421zM138 812v58h311v-58h-311z" />
    <glyph glyph-name="emacron" unicode="&#x113;" horiz-adv-x="505" 
d="M412 62l29 3l2 -59q-114 -16 -195 -16q-108 0 -153 62.5t-45 194.5q0 263 209 263q101 0 151 -56.5t50 -177.5l-4 -57h-330q0 -83 30 -123t104.5 -40t151.5 6zM385 279q0 92 -29.5 130t-96 38t-100 -40t-34.5 -128h260zM123 624v59h275v-59h-275z" />
    <glyph glyph-name="Ebreve" unicode="&#x114;" horiz-adv-x="553" 
d="M85 0v692h421v-68h-344v-239h284v-67h-284v-250h344v-68h-421zM242.5 864q25.5 -21 62 -21t61.5 21t26 54h70q-3 -59 -46 -95t-112 -36t-111.5 36t-45.5 95h69q1 -33 26.5 -54z" />
    <glyph glyph-name="ebreve" unicode="&#x115;" horiz-adv-x="505" 
d="M412 62l29 3l2 -59q-114 -16 -195 -16q-108 0 -153 62.5t-45 194.5q0 263 209 263q101 0 151 -56.5t50 -177.5l-4 -57h-330q0 -83 30 -123t104.5 -40t151.5 6zM385 279q0 92 -29.5 130t-96 38t-100 -40t-34.5 -128h260zM194 665q23 -23 62.5 -23t62.5 23t24 61h62
q-3 -60 -43 -100t-105.5 -40t-105.5 40t-43 100h61q2 -38 25 -61z" />
    <glyph glyph-name="Edotaccent" unicode="&#x116;" horiz-adv-x="553" 
d="M85 0v692h421v-68h-344v-239h284v-67h-284v-250h344v-68h-421zM260 801v87h74v-87h-74z" />
    <glyph glyph-name="edotaccent" unicode="&#x117;" horiz-adv-x="505" 
d="M412 62l29 3l2 -59q-114 -16 -195 -16q-108 0 -153 62.5t-45 194.5q0 263 209 263q101 0 151 -56.5t50 -177.5l-4 -57h-330q0 -83 30 -123t104.5 -40t151.5 6zM385 279q0 92 -29.5 130t-96 38t-100 -40t-34.5 -128h260zM217 609v87h74v-87h-74z" />
    <glyph glyph-name="Eogonek" unicode="&#x118;" horiz-adv-x="553" 
d="M85 0v692h421v-68h-344v-239h284v-67h-284v-250h344v-68h-29q-70 -70 -70 -102q0 -19 11.5 -31t29.5 -12l50 6l7 -58q-45 -9 -82 -9t-63 23.5t-26 59t24.5 68.5t49.5 55h-323z" />
    <glyph glyph-name="eogonek" unicode="&#x119;" horiz-adv-x="506" 
d="M343 -102q0 -19 11.5 -31t29.5 -12l50 6l7 -58q-45 -9 -82 -9t-63 23.5t-26 68t68 109.5q-52 -5 -90 -5q-108 0 -153 62.5t-45 194.5q0 263 209 263q101 0 151 -56.5t50 -177.5l-4 -57h-330q0 -83 30 -123t101 -40q78 0 155 6l29 3l2 -59q-16 -2 -35 -5h6
q-71 -70 -71 -103zM385 279q0 92 -29.5 130t-96 38t-100 -40t-34.5 -128h260z" />
    <glyph glyph-name="Ecaron" unicode="&#x11a;" horiz-adv-x="553" 
d="M85 0v692h421v-68h-344v-239h284v-67h-284v-250h344v-68h-421zM258 791l-134 135h84l83 -80l82 80h84l-134 -135h-65z" />
    <glyph glyph-name="ecaron" unicode="&#x11b;" horiz-adv-x="505" 
d="M412 62l29 3l2 -59q-114 -16 -195 -16q-108 0 -153 62.5t-45 194.5q0 263 209 263q101 0 151 -56.5t50 -177.5l-4 -57h-330q0 -83 30 -123t104.5 -40t151.5 6zM385 279q0 92 -29.5 130t-96 38t-100 -40t-34.5 -128h260zM227 592l-123 140h74l75 -87l74 87h75l-125 -140
h-50z" />
    <glyph glyph-name="Gcircumflex" unicode="&#x11c;" horiz-adv-x="616" 
d="M359 287v69h191v-340q-126 -24 -225 -24q-151 0 -209.5 87t-58.5 268.5t58.5 269t207.5 87.5q93 0 193 -20l34 -6l-3 -64q-124 21 -215 21q-115 0 -155 -66.5t-40 -221t40 -221t154 -66.5q70 0 143 14v213h-115zM156 788l134 135h65l134 -135h-84l-82 80l-83 -80h-84z
" />
    <glyph glyph-name="gcircumflex" unicode="&#x11d;" horiz-adv-x="514" 
d="M265 -235q-120 0 -167.5 32.5t-47.5 118.5q0 41 18 66.5t61 57.5q-28 19 -28 69q0 17 25 63l9 16q-79 36 -79 151q0 171 187 171q48 0 89 -10l15 -3l148 4v-64l-95 2q33 -33 33 -100q0 -94 -46.5 -131.5t-146.5 -37.5q-27 0 -49 4q-18 -44 -18 -57q0 -31 19 -38.5
t115 -7.5t138 -30t42 -117q0 -159 -222 -159zM124 -78q0 -53 29.5 -73.5t109 -20.5t114 22t34.5 73.5t-25 66.5t-98 15l-108 5q-33 -24 -44.5 -42t-11.5 -46zM157.5 255q26.5 -25 87.5 -25t87 25t26 84.5t-26 84.5t-87 25t-87.5 -25.5t-26.5 -84.5t26.5 -84zM113 592
l123 140h51l124 -140h-75l-73 87l-75 -87h-75z" />
    <glyph glyph-name="Gbreve" unicode="&#x11e;" horiz-adv-x="616" 
d="M359 285v69h191v-340q-126 -24 -225 -24q-151 0 -209.5 87t-58.5 268.5t58.5 269t207.5 87.5q93 0 193 -20l34 -6l-3 -64q-124 21 -215 21q-115 0 -155 -66.5t-40 -221t40 -221t154 -66.5q70 0 143 14v213h-115zM266.5 864q25.5 -21 62 -21t61.5 21t26 54h70
q-3 -59 -46 -95t-112 -36t-111.5 36t-45.5 95h69q1 -33 26.5 -54z" />
    <glyph glyph-name="gbreve" unicode="&#x11f;" horiz-adv-x="514" 
d="M265 -235q-120 0 -167.5 32.5t-47.5 118.5q0 41 18 66.5t61 57.5q-28 19 -28 69q0 17 25 63l9 16q-79 36 -79 151q0 171 187 171q48 0 89 -10l15 -3l148 4v-64l-95 2q33 -33 33 -100q0 -94 -46.5 -131.5t-146.5 -37.5q-27 0 -49 4q-18 -44 -18 -57q0 -31 19 -38.5
t115 -7.5t138 -30t42 -117q0 -159 -222 -159zM124 -78q0 -53 29.5 -73.5t109 -20.5t114 22t34.5 73.5t-25 66.5t-98 15l-108 5q-33 -24 -44.5 -42t-11.5 -46zM157.5 255q26.5 -25 87.5 -25t87 25t26 84.5t-26 84.5t-87 25t-87.5 -25.5t-26.5 -84.5t26.5 -84zM199 665
q23 -23 62.5 -23t62.5 23t24 61h62q-3 -60 -43 -100t-105.5 -40t-105.5 40t-43 100h61q2 -38 25 -61z" />
    <glyph glyph-name="Gdotaccent" unicode="&#x120;" horiz-adv-x="616" 
d="M359 285v69h191v-340q-126 -24 -225 -24q-151 0 -209.5 87t-58.5 268.5t58.5 269t207.5 87.5q93 0 193 -20l34 -6l-3 -64q-124 21 -215 21q-115 0 -155 -66.5t-40 -221t40 -221t154 -66.5q70 0 143 14v213h-115zM276 801v87h74v-87h-74z" />
    <glyph glyph-name="gdotaccent" unicode="&#x121;" horiz-adv-x="514" 
d="M265 -235q-120 0 -167.5 32.5t-47.5 118.5q0 41 18 66.5t61 57.5q-28 19 -28 69q0 17 25 63l9 16q-79 36 -79 151q0 171 187 171q48 0 89 -10l15 -3l148 4v-64l-95 2q33 -33 33 -100q0 -94 -46.5 -131.5t-146.5 -37.5q-27 0 -49 4q-18 -44 -18 -57q0 -31 19 -38.5
t115 -7.5t138 -30t42 -117q0 -159 -222 -159zM124 -78q0 -53 29.5 -73.5t109 -20.5t114 22t34.5 73.5t-25 66.5t-98 15l-108 5q-33 -24 -44.5 -42t-11.5 -46zM157.5 255q26.5 -25 87.5 -25t87 25t26 84.5t-26 84.5t-87 25t-87.5 -25.5t-26.5 -84.5t26.5 -84zM224 609v87h74
v-87h-74z" />
    <glyph glyph-name="Gcommaaccent" unicode="&#x122;" horiz-adv-x="616" 
d="M359 285v69h191v-340q-126 -24 -225 -24q-151 0 -209.5 87t-58.5 268.5t58.5 269t207.5 87.5q93 0 193 -20l34 -6l-3 -64q-124 21 -215 21q-115 0 -155 -66.5t-40 -221t40 -221t154 -66.5q70 0 143 14v213h-115zM301 -78h74l-50 -207h-65z" />
    <glyph glyph-name="gcommaaccent" unicode="&#x123;" horiz-adv-x="514" 
d="M307 796l-41 -207h-74l50 207h65zM265 -235q-120 0 -167.5 32.5t-47.5 118.5q0 41 18 66.5t61 57.5q-28 19 -28 69q0 17 25 63l9 16q-79 36 -79 151q0 171 187 171q48 0 89 -10l15 -3l148 4v-64l-95 2q33 -33 33 -100q0 -94 -46.5 -131.5t-146.5 -37.5q-27 0 -49 4
q-18 -44 -18 -57q0 -31 19 -38.5t115 -7.5t138 -30t42 -117q0 -159 -222 -159zM124 -78q0 -53 29.5 -73.5t109 -20.5t114 22t34.5 73.5t-25 66.5t-98 15l-108 5q-33 -24 -44.5 -42t-11.5 -46zM157.5 255q26.5 -25 87.5 -25t87 25t26 84.5t-26 84.5t-87 25t-87.5 -25.5
t-26.5 -84.5t26.5 -84z" />
    <glyph glyph-name="Hcircumflex" unicode="&#x124;" horiz-adv-x="675" 
d="M514 0v313h-352v-313h-77v692h77v-310h352v310h76v-692h-76zM172 791l134 135h65l134 -135h-84l-82 80l-83 -80h-84z" />
    <glyph glyph-name="hcircumflex" unicode="&#x125;" horiz-adv-x="537" 
d="M147 0h-75v718h75v-246q80 38 154 38q100 0 134.5 -54t34.5 -192v-264h-75v262q0 104 -20.5 142.5t-86.5 38.5q-63 0 -122 -23l-19 -7v-413zM118 774l123 140h51l124 -140h-75l-73 87l-75 -87h-75z" />
    <glyph glyph-name="Hbar" unicode="&#x126;" horiz-adv-x="686" 
d="M15 508v65h74v119h77v-119h352v119h76v-119h83v-65h-83v-508h-76v313h-352v-313h-77v508h-74zM166 382h352v126h-352v-126z" />
    <glyph glyph-name="hbar" unicode="&#x127;" horiz-adv-x="537" 
d="M10 580v66h62v72h75v-72h154v-66h-154v-108q80 38 154 38q100 0 134.5 -54t34.5 -192v-264h-75v262q0 104 -20.5 142.5t-86.5 38.5q-63 0 -122 -23l-19 -7v-413h-75v580h-62z" />
    <glyph glyph-name="Itilde" unicode="&#x128;" horiz-adv-x="246" 
d="M85 0v692h77v-692h-77zM200 803q-22 0 -84 27t-74 27q-23 0 -62 -36l-13 -12l-17 56q19 22 45 40t48.5 18t84 -27t72.5 -27q19 0 56 35l13 11l18 -56q-47 -56 -87 -56z" />
    <glyph glyph-name="itilde" unicode="&#x129;" horiz-adv-x="219" 
d="M72 500h75v-500h-75v500zM183 612q-21 0 -72.5 23.5t-64.5 23.5q-23 0 -62 -30l-13 -10l-18 48q50 52 91 52q21 0 73 -23t63 -23q22 0 60 29l12 9l17 -48q-46 -51 -86 -51z" />
    <glyph glyph-name="Imacron" unicode="&#x12a;" horiz-adv-x="246" 
d="M85 0v692h77v-692h-77zM-30 812v58h311v-58h-311z" />
    <glyph glyph-name="imacron" unicode="&#x12b;" horiz-adv-x="219" 
d="M72 500h75v-500h-75v500zM-28 624v59h275v-59h-275z" />
    <glyph glyph-name="Ibreve" unicode="&#x12c;" horiz-adv-x="246" 
d="M85 0v692h77v-692h-77zM131 843q37 0 62 21t26 54h70q-3 -59 -46 -95t-112 -36t-111.5 36t-45.5 95h69q1 -33 26 -54t62 -21z" />
    <glyph glyph-name="ibreve" unicode="&#x12d;" horiz-adv-x="219" 
d="M72 500h75v-500h-75v500zM47 665q23 -23 62.5 -23t62.5 23t24 61h62q-3 -60 -43 -100t-105.5 -40t-105.5 40t-43 100h61q2 -38 25 -61z" />
    <glyph glyph-name="Iogonek" unicode="&#x12e;" horiz-adv-x="246" 
d="M85 0v692h77v-692q-76 -69 -76 -102q0 -19 11.5 -31t29.5 -12l51 6l7 -58q-45 -9 -82 -9t-63 23.5t-26 59t24.5 68.5t49.5 55h-3z" />
    <glyph glyph-name="iogonek" unicode="&#x12f;" horiz-adv-x="219" 
d="M72 0v500h75v-500q-76 -68 -76 -102q0 -19 11.5 -31t29.5 -12l51 6l7 -58q-45 -9 -82 -9t-63 23.5t-26 63.5q0 53 77 119h-4zM72 613v87h75v-87h-75z" />
    <glyph glyph-name="Idotaccent" unicode="&#x130;" horiz-adv-x="246" 
d="M85 0v692h77v-692h-77zM86 801v87h74v-87h-74z" />
    <glyph glyph-name="dotlessi" unicode="&#x131;" horiz-adv-x="219" 
d="M72 0v500h75v-500h-75z" />
    <glyph glyph-name="Jcircumflex" unicode="&#x134;" horiz-adv-x="289" 
d="M18 -72v69q72 0 92.5 17.5t20.5 91.5v586h76l1 -597q0 -84 -28 -123q-23 -33 -91 -41q-27 -3 -71 -3zM2 788l134 135h65l134 -135h-84l-82 80l-83 -80h-84z" />
    <glyph glyph-name="jcircumflex" unicode="&#x135;" horiz-adv-x="219" 
d="M73 13v487h74v-488q0 -92 -33 -138t-133 -97l-30 58q77 45 99.5 77t22.5 101zM-41 592l123 140h51l124 -140h-75l-73 87l-75 -87h-75z" />
    <glyph glyph-name="Kcommaaccent" unicode="&#x136;" horiz-adv-x="568" 
d="M162 0h-77v696h77v-321l113 4l177 317h89l-198 -348l209 -348h-91l-184 306l-115 -4v-302zM264 -78h74l-49 -207h-65z" />
    <glyph glyph-name="kcommaaccent" unicode="&#x137;" horiz-adv-x="479" 
d="M100 -285l40 207h75l-50 -207h-65zM147 0h-75v718h75v-424l78 4l143 202h85l-163 -230l170 -270h-85l-149 232l-79 -3v-229z" />
    <glyph glyph-name="Lacute" unicode="&#x139;" horiz-adv-x="479" 
d="M466 0h-381v696h77v-622h304v-74zM134 831l216 100l26 -66l-219 -87z" />
    <glyph glyph-name="lacute" unicode="&#x13a;" horiz-adv-x="231" 
d="M78 0v718h75v-718h-75zM52 846l216 98l26 -64l-221 -85z" />
    <glyph glyph-name="Lcommaaccent" unicode="&#x13b;" horiz-adv-x="479" 
d="M241 -78h74l-50 -207h-65zM466 0h-381v692h77v-623h304v-69z" />
    <glyph glyph-name="lcommaaccent" unicode="&#x13c;" horiz-adv-x="231" 
d="M78 0v718h75v-718h-75zM74 -78h74l-50 -207h-65z" />
    <glyph glyph-name="Lcaron" unicode="&#x13d;" horiz-adv-x="494" 
d="M439 696v-234h-73v234h73zM466 0h-381v692h77v-623h304v-69z" />
    <glyph glyph-name="lcaron" unicode="&#x13e;" horiz-adv-x="270" 
d="M255 683h74l-49 -207h-66zM78 0v718h75v-718h-75z" />
    <glyph glyph-name="Lslash" unicode="&#x141;" horiz-adv-x="483" 
d="M471 0h-381v272l-57 -40l-37 52l94 66v342h77v-288l142 99l37 -51l-179 -126v-257h304v-69z" />
    <glyph glyph-name="lslash" unicode="&#x142;" horiz-adv-x="310" 
d="M114 0v279l-67 -47l-37 52l104 73v361h75v-309l74 52l37 -52l-111 -78v-331h-75z" />
    <glyph glyph-name="Nacute" unicode="&#x143;" horiz-adv-x="676" 
d="M85 0v692h144l265 -624h21v624h76v-692h-141l-269 624h-19v-624h-77zM220 831l216 100l26 -66l-219 -87z" />
    <glyph glyph-name="nacute" unicode="&#x144;" horiz-adv-x="537" 
d="M72 0v500h74v-35l22 11q23 12 61.5 23t71.5 11q100 0 134.5 -54t34.5 -192v-264h-74v262q0 104 -20.5 142.5t-90 38.5t-138.5 -37v-406h-75zM160 642l216 98l26 -64l-221 -85z" />
    <glyph glyph-name="Ncommaaccent" unicode="&#x145;" horiz-adv-x="676" 
d="M324 -78h74l-50 -207h-65zM85 0v692h144l265 -624h21v624h76v-692h-141l-269 624h-19v-624h-77z" />
    <glyph glyph-name="ncommaaccent" unicode="&#x146;" horiz-adv-x="537" 
d="M127 -285l41 207h74l-49 -207h-66zM147 0h-75v500h74v-35q81 45 155 45q100 0 134.5 -54t34.5 -192v-264h-74v262q0 104 -20.5 142.5t-87.5 38.5q-32 0 -67.5 -9.5t-54.5 -18.5l-19 -9v-406z" />
    <glyph glyph-name="Ncaron" unicode="&#x147;" horiz-adv-x="676" 
d="M85 0v692h144l265 -624h21v624h76v-692h-141l-269 624h-19v-624h-77zM306 788l-134 135h84l83 -80l82 80h84l-134 -135h-65z" />
    <glyph glyph-name="ncaron" unicode="&#x148;" horiz-adv-x="537" 
d="M147 0h-75v500h74v-35q81 45 155 45q100 0 134.5 -54t34.5 -192v-264h-74v262q0 104 -20.5 142.5t-87.5 38.5q-32 0 -67.5 -9.5t-54.5 -18.5l-19 -9v-406zM242 592l-123 140h74l75 -87l74 87h75l-125 -140h-50z" />
    <glyph glyph-name="Eng" unicode="&#x14a;" horiz-adv-x="676" 
d="M85 0v692h144l265 -624h21v624h76v-117l1 -597q0 -84 -28 -124q-23 -32 -91 -40q-27 -3 -71 -3v69q72 0 92.5 17.5t20.5 91.5v11h-65l-269 624h-19v-624h-77z" />
    <glyph glyph-name="eng" unicode="&#x14b;" horiz-adv-x="538" 
d="M146 0h-74v500h74v-33q87 43 158 43q96 0 131.5 -57.5t35.5 -192.5v-262q0 -93 -31 -138t-130 -97l-32 63q75 43 96.5 74t21.5 96v263q0 100 -20.5 141.5t-83.5 41.5q-29 0 -65.5 -9t-58.5 -19l-22 -9v-405z" />
    <glyph glyph-name="Omacron" unicode="&#x14c;" horiz-adv-x="660" 
d="M176 124.5q40 -66.5 154.5 -66.5t154 65t39.5 218t-41 223t-153.5 70t-153 -69.5t-40.5 -221.5t40 -218.5zM545 73q-59 -83 -214.5 -83t-214.5 85t-59 267.5t60 271t213 88.5t213.5 -88t60.5 -273t-59 -268zM174 812v58h311v-58h-311z" />
    <glyph glyph-name="omacron" unicode="&#x14d;" horiz-adv-x="528" 
d="M429.5 449q48.5 -61 48.5 -198t-46 -199t-168 -62t-168 62t-46 199t49 198t165.5 61t165 -61zM375 98.5q26 43.5 26 153.5t-29 151.5t-107.5 41.5t-108 -41.5t-29.5 -151t26.5 -153.5t111 -44t110.5 43.5zM128 636v59h275v-59h-275z" />
    <glyph glyph-name="Obreve" unicode="&#x14e;" horiz-adv-x="660" 
d="M176 124.5q40 -66.5 154.5 -66.5t154 65t39.5 218t-41 223t-153.5 70t-153 -69.5t-40.5 -221.5t40 -218.5zM545 73q-59 -83 -214.5 -83t-214.5 85t-59 267.5t60 271t213 88.5t213.5 -88t60.5 -273t-59 -268zM331 843q37 0 62 21t26 54h70q-3 -59 -46 -95t-112 -36
t-111.5 36t-45.5 95h69q1 -33 26 -54t62 -21z" />
    <glyph glyph-name="obreve" unicode="&#x14f;" horiz-adv-x="528" 
d="M429.5 449q48.5 -61 48.5 -198t-46 -199t-168 -62t-168 62t-46 199t49 198t165.5 61t165 -61zM375 98.5q26 43.5 26 153.5t-29 151.5t-107.5 41.5t-108 -41.5t-29.5 -151t26.5 -153.5t111 -44t110.5 43.5zM204 665q23 -23 62.5 -23t62.5 23t24 61h62q-3 -60 -43 -100
t-105.5 -40t-105.5 40t-43 100h61q2 -38 25 -61z" />
    <glyph glyph-name="Ohungarumlaut" unicode="&#x150;" horiz-adv-x="660" 
d="M176 124.5q40 -66.5 154.5 -66.5t154 65t39.5 218t-41 223t-153.5 70t-153 -69.5t-40.5 -221.5t40 -218.5zM545 73q-59 -83 -214.5 -83t-214.5 85t-59 267.5t60 271t213 88.5t213.5 -88t60.5 -273t-59 -268zM348 785l142 131l55 -35l-146 -129zM151 785l142 132l54 -35
l-145 -129z" />
    <glyph glyph-name="ohungarumlaut" unicode="&#x151;" horiz-adv-x="528" 
d="M429.5 449q48.5 -61 48.5 -198t-46 -199t-168 -62t-168 62t-46 199t49 198t165.5 61t165 -61zM375 98.5q26 43.5 26 153.5t-29 151.5t-107.5 41.5t-108 -41.5t-29.5 -151t26.5 -153.5t111 -44t110.5 43.5zM286 624l145 139l54 -43l-148 -138zM93 624l145 138l54 -42
l-147 -138z" />
    <glyph glyph-name="OE" unicode="&#x152;" horiz-adv-x="925" 
d="M878 -1h-413q-92 -9 -143 -9q-153 0 -209 84.5t-56 272t58 273.5t207 86q79 0 141 -10h415v-74h-339v-229h279v-74h-279v-245h339v-75zM332 65q52 0 131 7v550q-105 9 -133 9q-113 0 -153 -65t-40 -219.5t39 -218t156 -63.5z" />
    <glyph glyph-name="oe" unicode="&#x153;" horiz-adv-x="857" 
d="M763 65l29 2l2 -61q-113 -16 -194 -16q-119 0 -162 91q-22 -48 -63 -69.5t-110 -21.5q-123 0 -169 62t-46 199.5t49.5 198t165.5 60.5q68 0 110.5 -24.5t65.5 -80.5q45 105 170 105q101 0 151 -56.5t50 -177.5l-4 -58h-330q0 -82 30 -121t92 -39t163 7zM154 101.5
q27 -44.5 110.5 -44.5t110 45t26.5 149t-31.5 147.5t-107.5 43.5t-105.5 -40.5t-29.5 -148t27 -152zM477 279h260q0 89 -29.5 126.5t-96.5 37.5q-134 0 -134 -164z" />
    <glyph glyph-name="Racute" unicode="&#x154;" horiz-adv-x="616" 
d="M162 265v-265h-77v692h256q110 0 165.5 -51t55.5 -159q0 -160 -127 -201l133 -281h-85l-125 265h-196zM341 624h-179v-291h180q141 0 141 145.5t-142 145.5zM187 831l216 100l26 -66l-219 -87z" />
    <glyph glyph-name="racute" unicode="&#x155;" horiz-adv-x="346" 
d="M72 0v500h74v-68q87 60 183 79v-76q-42 -8 -87.5 -25t-69.5 -30l-25 -13v-367h-75zM67 642l216 98l26 -64l-221 -85z" />
    <glyph glyph-name="Rcommaaccent" unicode="&#x156;" horiz-adv-x="616" 
d="M245 -285l41 207h74l-50 -207h-65zM162 265v-265h-77v692h256q110 0 165.5 -51t55.5 -159q0 -160 -127 -201l133 -281h-85l-125 265h-196zM342 333q141 0 141 145.5t-142 145.5h-179v-291h180z" />
    <glyph glyph-name="rcommaaccent" unicode="&#x157;" horiz-adv-x="346" 
d="M72 -78h74l-49 -207h-65zM72 0v500h74v-68q87 60 183 79v-76q-42 -8 -87.5 -25t-69.5 -30l-25 -13v-367h-75z" />
    <glyph glyph-name="Rcaron" unicode="&#x158;" horiz-adv-x="616" 
d="M162 265v-265h-77v692h256q110 0 165.5 -51t55.5 -159q0 -160 -127 -201l133 -281h-85l-125 265h-196zM342 333q141 0 141 145.5t-142 145.5h-179v-291h180zM268 791l-134 135h84l83 -80l82 80h84l-134 -135h-65z" />
    <glyph glyph-name="rcaron" unicode="&#x159;" horiz-adv-x="346" 
d="M72 0v500h74v-68q87 60 183 79v-76q-42 -8 -87.5 -25t-69.5 -30l-25 -13v-367h-75zM149 592l-123 140h74l75 -87l74 87h75l-125 -140h-50z" />
    <glyph glyph-name="Sacute" unicode="&#x15a;" horiz-adv-x="542" 
d="M276 635q-150 0 -150 -113q0 -63 34.5 -86.5t140 -47t149.5 -61t44 -123.5q0 -213 -221 -213q-73 0 -183 17l-36 5l8 64q136 -18 207 -18q148 0 148 139q0 56 -32.5 80.5t-121.5 41.5q-117 25 -166 64.5t-49 132.5q0 186 223 186q73 0 175 -15l34 -5l-7 -65
q-139 17 -197 17zM163 831l216 100l26 -66l-219 -87z" />
    <glyph glyph-name="sacute" unicode="&#x15b;" horiz-adv-x="465" 
d="M229 443q-109 0 -109 -76q0 -35 25 -49.5t114 -30t126 -43.5t37 -105t-49.5 -113t-144.5 -36q-62 0 -146 14l-30 5l4 65q114 -17 172 -17t88.5 18.5t30.5 62t-26 59t-114 29.5t-125 41t-37 100t51.5 108t128.5 35q61 0 153 -14l28 -5l-2 -64q-111 16 -175 16zM114 642
l216 98l26 -64l-221 -85z" />
    <glyph glyph-name="Scircumflex" unicode="&#x15c;" horiz-adv-x="542" 
d="M276 635q-150 0 -150 -113q0 -63 34.5 -86.5t140 -47t149.5 -61t44 -123.5q0 -213 -221 -213q-73 0 -183 17l-36 5l8 64q136 -18 207 -18q148 0 148 139q0 56 -32.5 80.5t-121.5 41.5q-117 25 -166 64.5t-49 132.5q0 186 223 186q73 0 175 -15l34 -5l-7 -65
q-139 17 -197 17zM108 788l134 135h65l134 -135h-84l-82 80l-83 -80h-84z" />
    <glyph glyph-name="scircumflex" unicode="&#x15d;" horiz-adv-x="465" 
d="M229 443q-109 0 -109 -76q0 -35 25 -49.5t114 -30t126 -43.5t37 -105t-49.5 -113t-144.5 -36q-62 0 -146 14l-30 5l4 65q114 -17 172 -17t88.5 18.5t30.5 62t-26 59t-114 29.5t-125 41t-37 100t51.5 108t128.5 35q61 0 153 -14l28 -5l-2 -64q-111 16 -175 16zM85 592
l123 140h51l124 -140h-75l-73 87l-75 -87h-75z" />
    <glyph glyph-name="Scedilla" unicode="&#x15e;" horiz-adv-x="542" 
d="M410 -127q0 -90 -93 -90q-46 0 -75 5l-11 2l3 48q39 -3 66 -3q44 0 44 38q0 34 -44 34h-42v84q-74 2 -172 17l-32 5l8 64q136 -18 207 -18q148 0 148 139q0 56 -32.5 80.5t-121.5 41.5q-117 25 -166 64.5t-49 132.5q0 186 223 186q73 0 175 -15l34 -5l-7 -65
q-139 17 -197 17q-150 0 -150 -113q0 -63 34.5 -86.5t140 -47t149.5 -61t44 -123.5q0 -199 -195 -212v-41q59 0 85 -16t26 -62z" />
    <glyph glyph-name="scedilla" unicode="&#x15f;" horiz-adv-x="465" 
d="M356 -127q0 -90 -93 -90q-46 0 -75 5l-11 2l3 48q39 -3 66 -3q44 0 44 38q0 34 -44 34h-42v84q-58 2 -128 14l-24 4l4 65q114 -17 172 -17t88.5 18.5t30.5 62t-26 59t-114 29.5t-125 41t-37 100t51.5 108t128.5 35q61 0 153 -14l28 -5l-2 -64q-111 16 -175 16
q-109 0 -109 -76q0 -35 25 -49.5t114 -30t126 -43.5t37 -103.5t-45 -111.5t-132 -39v-39q59 0 85 -16t26 -62z" />
    <glyph glyph-name="Scaron" unicode="&#x160;" horiz-adv-x="542" 
d="M276 635q-150 0 -150 -113q0 -63 34.5 -86.5t140 -47t149.5 -61t44 -123.5q0 -213 -221 -213q-73 0 -183 17l-36 5l8 64q136 -18 207 -18q148 0 148 139q0 56 -32.5 80.5t-121.5 41.5q-117 25 -166 64.5t-49 132.5q0 186 223 186q73 0 175 -15l34 -5l-7 -65
q-139 17 -197 17zM250 791l-134 135h84l83 -80l82 80h84l-134 -135h-65z" />
    <glyph glyph-name="scaron" unicode="&#x161;" horiz-adv-x="465" 
d="M229 443q-109 0 -109 -76q0 -35 25 -49.5t114 -30t126 -43.5t37 -105t-49.5 -113t-144.5 -36q-62 0 -146 14l-30 5l4 65q114 -17 172 -17t88.5 18.5t30.5 62t-26 59t-114 29.5t-125 41t-37 100t51.5 108t128.5 35q61 0 153 -14l28 -5l-2 -64q-111 16 -175 16zM216 592
l-123 140h74l75 -87l74 87h75l-125 -140h-50z" />
    <glyph glyph-name="Tcedilla" unicode="&#x162;" horiz-adv-x="0" 
 />
    <glyph glyph-name="tcedilla" unicode="&#x163;" horiz-adv-x="351" 
d="M331 435h-159v-239q0 -86 12.5 -113t59.5 -27l89 6l5 -62q-67 -11 -102 -11q-78 0 -108 38t-30 145v263h-71v65h71v153h74v-153h159v-65zM264 -127q0 -90 -93 -90q-46 0 -75 5l-11 2l3 48q39 -3 66 -3q44 0 44 38q0 34 -44 34h-42v94h41v-50q59 0 85 -16t26 -62z" />
    <glyph glyph-name="Tcaron" unicode="&#x164;" horiz-adv-x="526" 
d="M13 623v69h500v-69h-211v-623h-76v623h-213zM231 791l-134 135h84l83 -80l82 80h84l-134 -135h-65z" />
    <glyph glyph-name="tcaron" unicode="&#x165;" horiz-adv-x="432" 
d="M331 432h-158v-233q0 -86 12 -112.5t60 -26.5l89 5l4 -65q-66 -11 -101 -11q-79 0 -109 38.5t-30 144.5v260h-71v68h71v153h75v-153h158v-68zM442 696v-234h-72v234h72z" />
    <glyph glyph-name="Tbar" unicode="&#x166;" horiz-adv-x="529" 
d="M15 623v69h500v-69h-211v-257h164v-66h-164v-300h-76v300h-163v66h163v257h-213z" />
    <glyph glyph-name="tbar" unicode="&#x167;" horiz-adv-x="354" 
d="M333 432h-158v-120h134v-59h-134v-54q0 -86 12 -112.5t60 -26.5l89 5l4 -65q-66 -11 -101 -11q-79 0 -109 38.5t-30 144.5v81h-55v59h55v120h-71v68h71v153h75v-153h158v-68z" />
    <glyph glyph-name="Utilde" unicode="&#x168;" horiz-adv-x="644" 
d="M157 208q0 -150 162 -150q84 0 126.5 35.5t42.5 114.5v484h76v-482q0 -116 -61.5 -168t-181.5 -52t-180.5 52t-60.5 168v482h77v-484zM402 803q-21 0 -83 27t-75 27q-22 0 -61 -36l-13 -12l-17 56q19 22 45 40t49 18t84 -27t71 -27q20 0 58 35l12 11l18 -56
q-47 -56 -88 -56z" />
    <glyph glyph-name="utilde" unicode="&#x169;" horiz-adv-x="531" 
d="M459 500v-500h-75v35l-21 -11q-21 -12 -58 -23t-69 -11q-102 0 -135.5 53t-33.5 196v261h75v-260q0 -109 19 -146t89.5 -37t133.5 37v406h75zM335 612q-21 0 -72.5 23.5t-64.5 23.5q-23 0 -62 -30l-13 -10l-18 48q50 52 91 52q21 0 73 -23t63 -23q22 0 60 29l12 9l17 -48
q-46 -51 -86 -51z" />
    <glyph glyph-name="Umacron" unicode="&#x16a;" horiz-adv-x="644" 
d="M157 208q0 -150 162 -150q84 0 126.5 35.5t42.5 114.5v484h76v-482q0 -116 -61.5 -168t-181.5 -52t-180.5 52t-60.5 168v482h77v-484zM168 812v58h311v-58h-311z" />
    <glyph glyph-name="umacron" unicode="&#x16b;" horiz-adv-x="531" 
d="M459 500v-500h-75v35l-21 -11q-21 -12 -58 -23t-69 -11q-102 0 -135.5 53t-33.5 196v261h75v-260q0 -109 19 -146t89.5 -37t133.5 37v406h75zM126 624v59h275v-59h-275z" />
    <glyph glyph-name="Ubreve" unicode="&#x16c;" horiz-adv-x="644" 
d="M157 208q0 -150 162 -150q84 0 126.5 35.5t42.5 114.5v484h76v-482q0 -116 -61.5 -168t-181.5 -52t-180.5 52t-60.5 168v482h77v-484zM262.5 864q25.5 -21 62 -21t61.5 21t26 54h70q-3 -59 -46 -95t-112 -36t-111.5 36t-45.5 95h69q1 -33 26.5 -54z" />
    <glyph glyph-name="ubreve" unicode="&#x16d;" horiz-adv-x="531" 
d="M459 500v-500h-75v35l-21 -11q-21 -12 -58 -23t-69 -11q-102 0 -135.5 53t-33.5 196v261h75v-260q0 -109 19 -146t89.5 -37t133.5 37v406h75zM197 665q23 -23 62.5 -23t62.5 23t24 61h62q-3 -60 -43 -100t-105.5 -40t-105.5 40t-43 100h61q2 -38 25 -61z" />
    <glyph glyph-name="Uring" unicode="&#x16e;" horiz-adv-x="644" 
d="M157 208q0 -150 162 -150q84 0 126.5 35.5t42.5 114.5v484h76v-482q0 -116 -61.5 -168t-181.5 -52t-180.5 52t-60.5 168v482h77v-484zM409 923q33 -28 33 -77.5t-33 -77.5t-85.5 -28t-85.5 28t-33 77.5t33.5 77.5t85.5 28t85 -28zM262 846q0 -25 16.5 -39.5t45.5 -14.5
t45.5 14.5t16.5 39.5t-16.5 39t-45.5 14q-62 0 -62 -53z" />
    <glyph glyph-name="uring" unicode="&#x16f;" horiz-adv-x="531" 
d="M459 500v-500h-75v35l-21 -11q-21 -12 -58 -23t-69 -11q-102 0 -135.5 53t-33.5 196v261h75v-260q0 -109 19 -146t89.5 -37t133.5 37v406h75zM161 645q0 44 30 74t73.5 30t73.5 -30t30 -74t-29.5 -74t-73.5 -30t-74 30t-30 74zM226 684.5q-16 -16.5 -16 -40t16 -40
t39 -16.5t39 16.5t16 40t-16 40t-39 16.5t-39 -16.5z" />
    <glyph glyph-name="Uhungarumlaut" unicode="&#x170;" horiz-adv-x="644" 
d="M157 208q0 -150 162 -150q84 0 126.5 35.5t42.5 114.5v484h76v-482q0 -116 -61.5 -168t-181.5 -52t-180.5 52t-60.5 168v482h77v-484zM352 785l142 131l55 -35l-146 -129zM155 785l142 132l54 -35l-145 -129z" />
    <glyph glyph-name="uhungarumlaut" unicode="&#x171;" horiz-adv-x="531" 
d="M459 500v-500h-75v35l-21 -11q-21 -12 -58 -23t-69 -11q-102 0 -135.5 53t-33.5 196v261h75v-260q0 -109 19 -146t89.5 -37t133.5 37v406h75zM301 624l145 139l54 -43l-148 -138zM108 624l145 138l54 -42l-147 -138z" />
    <glyph glyph-name="Uogonek" unicode="&#x172;" horiz-adv-x="645" 
d="M157 208q0 -150 162 -150q84 0 126.5 35.5t42.5 114.5v484h76v-482q0 -176 -151 -210l-9 -9q-60 -64 -60 -93q0 -19 11.5 -31t29.5 -12l50 6l7 -58q-45 -9 -82 -9t-63 23.5t-26 66.5t63 106h-15q-118 0 -178.5 52t-60.5 168v482h77v-484z" />
    <glyph glyph-name="uogonek" unicode="&#x173;" horiz-adv-x="531" 
d="M384 500h75v-500q-25 -19 -51 -52.5t-26 -51t11.5 -29.5t29.5 -12l51 6l7 -58q-45 -9 -82 -9t-63 23.5t-26 59t25.5 68.5t52.5 55h-4v32q-78 -42 -148 -42q-102 0 -135.5 53t-33.5 196v261h75v-260q0 -109 19 -146t86 -37q30 0 64 9.5t53 18.5l20 9v406z" />
    <glyph glyph-name="Wcircumflex" unicode="&#x174;" horiz-adv-x="886" 
d="M30 692h80l118 -624h29l141 618h90l141 -618h29l118 624h79l-140 -692h-141l-131 591l-131 -591h-141zM277 788l134 135h65l134 -135h-84l-82 80l-83 -80h-84z" />
    <glyph glyph-name="wcircumflex" unicode="&#x175;" horiz-adv-x="762" 
d="M31 500h75l101 -435h16l119 425h78l119 -425h17l100 435h75l-119 -500h-125l-106 391l-106 -391h-125zM233 592l123 140h51l124 -140h-75l-73 87l-75 -87h-75z" />
    <glyph glyph-name="Ycircumflex" unicode="&#x176;" horiz-adv-x="538" 
d="M308 0h-77v291l-221 401h87l172 -324l172 324h87l-220 -401v-291zM104 791l134 135h65l134 -135h-84l-82 80l-83 -80h-84z" />
    <glyph glyph-name="ycircumflex" unicode="&#x177;" horiz-adv-x="483" 
d="M25 500h75l125 -435h33l126 435h75l-208 -722h-75l65 222h-74zM95 592l123 140h51l124 -140h-75l-73 87l-75 -87h-75z" />
    <glyph glyph-name="Ydieresis" unicode="&#x178;" horiz-adv-x="538" 
d="M308 0h-77v291l-221 401h87l172 -324l172 324h87l-220 -401v-291zM130 808v90h73v-90h-73zM334 808v90h72v-90h-72z" />
    <glyph glyph-name="Zacute" unicode="&#x179;" horiz-adv-x="536" 
d="M43 624v68h450v-90l-362 -514v-20h362v-69h-450v89l361 514v22h-361zM153 831l216 100l26 -66l-219 -87z" />
    <glyph glyph-name="zacute" unicode="&#x17a;" horiz-adv-x="455" 
d="M42 500h371v-67l-280 -366h280v-67h-371v67l280 366h-280v67zM113 642l216 98l26 -64l-221 -85z" />
    <glyph glyph-name="Zdotaccent" unicode="&#x17b;" horiz-adv-x="536" 
d="M43 624v68h450v-90l-362 -514v-20h362v-69h-450v89l361 514v22h-361zM230 801v87h74v-87h-74z" />
    <glyph glyph-name="zdotaccent" unicode="&#x17c;" horiz-adv-x="455" 
d="M42 500h371v-67l-280 -366h280v-67h-371v67l280 366h-280v67zM190 609v87h74v-87h-74z" />
    <glyph glyph-name="Zcaron" unicode="&#x17d;" horiz-adv-x="536" 
d="M43 624v68h450v-90l-362 -514v-20h362v-69h-450v89l361 514v22h-361zM243 791l-134 135h84l83 -80l82 80h84l-134 -135h-65z" />
    <glyph glyph-name="zcaron" unicode="&#x17e;" horiz-adv-x="455" 
d="M42 433v67h371v-67l-280 -366h280v-67h-371v67l280 366h-280zM205 592l-123 140h74l75 -87l74 87h75l-125 -140h-50z" />
    <glyph glyph-name="florin" unicode="&#x192;" 
d="M281 -55q0 -101 -33.5 -140.5t-110.5 -39.5q-38 0 -83 6l-15 2l1 64q60 -5 95 -5t53 25.5t18 88.5v420h-63v64h63v54q0 98 27.5 151.5t107.5 53.5q28 0 84 -7l16 -2l-1 -63q-45 4 -85 4q-74 0 -74 -115v-76h145v-64h-145v-421z" />
    <glyph glyph-name="Aringacute" unicode="&#x1fa;" horiz-adv-x="596" 
d="M383 823q33 -28 33 -75t-29 -76l185 -672h-76l-50 178h-296l-50 -178h-76l184 671q-29 29 -29 76.5t33.5 75.5t85.5 28t85 -28zM272 626l-105 -379h262l-105 379h-52zM170 924l216 100l26 -66l-219 -87zM236 746q0 -25 16.5 -39.5t45.5 -14.5t45.5 14.5t16.5 39.5
t-16.5 39t-45.5 14q-62 0 -62 -53z" />
    <glyph glyph-name="aringacute" unicode="&#x1fb;" horiz-adv-x="501" 
d="M425 349v-256q3 -37 58 -44l-3 -59q-79 0 -119 40q-90 -40 -180 -40q-69 0 -105 39t-36 112t37 107.5t116 42.5l157 15v43q0 51 -22 73t-60 22q-80 0 -166 -10l-31 -3l-3 57q110 22 195 22t123.5 -39t38.5 -122zM117 145q0 -92 76 -92q68 0 134 23l23 8v165l-148 -14
q-45 -4 -65 -26t-20 -64zM142 645q0 44 30 74t73.5 30t73.5 -30t30 -74t-29.5 -74t-73.5 -30t-74 30t-30 74zM207 684.5q-16 -16.5 -16 -40t16 -40t39 -16.5t39 16.5t16 40t-16 40t-39 16.5t-39 -16.5zM132 824l216 98l26 -64l-221 -85z" />
    <glyph glyph-name="AEacute" unicode="&#x1fc;" horiz-adv-x="876" 
d="M408 0v175h-251l-58 -175h-79l224 696h585v-73h-345v-230h285v-73h-285v-247h345v-73h-421zM300 623l-122 -374h230l1 374h-109zM413 831l216 100l26 -66l-219 -87z" />
    <glyph glyph-name="aeacute" unicode="&#x1fd;" horiz-adv-x="804" 
d="M710 65l29 2l2 -61q-113 -16 -203 -16t-138 54l-32 -14q-87 -40 -192 -40q-67 0 -101.5 39.5t-34.5 116.5t41 107.5t140 40.5l129 12v41q0 91 -87 91q-66 0 -159 -8l-31 -2l-3 67q119 15 197 15q102 0 135 -73q48 73 152.5 73t154.5 -56.5t50 -177.5l-4 -58h-330
q0 -82 30 -121t91.5 -39t163.5 7zM188 55q46 0 105 14.5t74 22.5q-19 51 -19 153l-146 -12q-44 -4 -64.5 -25t-20.5 -63q0 -90 71 -90zM425 279h259q0 89 -29.5 126.5t-96 37.5t-100 -39t-33.5 -125zM290 642l216 98l26 -64l-221 -85z" />
    <glyph glyph-name="Oslashacute" unicode="&#x1fe;" horiz-adv-x="662" 
d="M331 -10q-69 0 -120 17l-57 -123l-57 26l59 126q-53 40 -75.5 115t-22.5 192q0 182 60 270.5t213 88.5q75 0 126 -21l56 118l58 -24l-59 -127q93 -78 93 -305q0 -187 -59 -270t-215 -83zM177.5 564.5q-40.5 -69.5 -40.5 -234t52 -222.5l238 507q-38 19 -96 19
q-113 0 -153.5 -69.5zM331 58q115 0 154.5 65t39.5 226t-48 225l-235 -502q34 -14 89 -14zM209 831l216 100l26 -66l-219 -87z" />
    <glyph glyph-name="oslashacute" unicode="&#x1ff;" horiz-adv-x="528" 
d="M264 510q39 0 74 -8l43 104l50 -19l-43 -104q90 -50 90 -227q0 -142 -46 -204t-168 -62q-41 0 -76 8l-43 -110l-50 18l44 109q-49 27 -69 85t-20 156q0 132 49 193t165 61zM264 445q-78 0 -107.5 -41.5t-29.5 -131t8.5 -130.5t33.5 -62l145 359q-21 6 -50 6zM264 55
q85 0 111 43.5t26 162t-42 156.5l-146 -357q18 -5 51 -5zM144 642l216 98l26 -64l-221 -85z" />
    <glyph glyph-name="Scommaaccent" unicode="&#x218;" horiz-adv-x="542" 
d="M249 -78h74l-49 -207h-65zM276 635q-150 0 -150 -113q0 -63 34.5 -86.5t140 -47t149.5 -61t44 -123.5q0 -213 -221 -213q-73 0 -183 17l-36 5l8 64q136 -18 207 -18q148 0 148 139q0 56 -32.5 80.5t-121.5 41.5q-117 25 -166 64.5t-49 132.5q0 186 223 186q73 0 175 -15
l34 -5l-7 -65q-139 17 -197 17z" />
    <glyph glyph-name="scommaaccent" unicode="&#x219;" horiz-adv-x="465" 
d="M151 -78h75l-50 -207h-65zM229 443q-109 0 -109 -76q0 -35 25 -49.5t114 -30t126 -43.5t37 -105t-49.5 -113t-144.5 -36q-62 0 -146 14l-30 5l4 65q114 -17 172 -17t88.5 18.5t30.5 62t-26 59t-114 29.5t-125 41t-37 100t51.5 108t128.5 35q61 0 153 -14l28 -5l-2 -64
q-111 16 -175 16z" />
    <glyph glyph-name="Tcommaaccent" unicode="&#x21a;" horiz-adv-x="526" 
d="M246 -78h75l-50 -207h-65zM13 623v69h500v-69h-211v-623h-76v623h-213z" />
    <glyph glyph-name="tcommaaccent" unicode="&#x21b;" horiz-adv-x="351" 
d="M141 -78h75l-50 -207h-65zM331 435h-159v-239q0 -86 12.5 -113t59.5 -27l89 6l5 -62q-67 -11 -102 -11q-78 0 -108 38t-30 145v263h-71v65h71v153h74v-153h159v-65z" />
    <glyph glyph-name="circumflex" unicode="&#x2c6;" horiz-adv-x="236" 
d="M-19 592l123 140h51l124 -140h-75l-73 87l-75 -87h-75z" />
    <glyph glyph-name="caron" unicode="&#x2c7;" horiz-adv-x="236" 
d="M106 592l-123 140h74l75 -87l74 87h75l-125 -140h-50z" />
    <glyph glyph-name="breve" unicode="&#x2d8;" horiz-adv-x="236" 
d="M69 665q23 -23 62.5 -23t62.5 23t24 61h62q-3 -60 -43 -100t-105.5 -40t-105.5 40t-43 100h61q2 -38 25 -61z" />
    <glyph glyph-name="dotaccent" unicode="&#x2d9;" horiz-adv-x="236" 
d="M81 609v87h74v-87h-74z" />
    <glyph glyph-name="ring" unicode="&#x2da;" horiz-adv-x="236" 
d="M18 645q0 44 30 74t73.5 30t73.5 -30t30 -74t-29.5 -74t-73.5 -30t-74 30t-30 74zM83 684.5q-16 -16.5 -16 -40t16 -40t39 -16.5t39 16.5t16 40t-16 40t-39 16.5t-39 -16.5z" />
    <glyph glyph-name="ogonek" unicode="&#x2db;" horiz-adv-x="450" 
d="M261 -102q0 -19 11.5 -31t29.5 -12l50 6l7 -58q-45 -9 -82 -9t-63 23.5t-26 56.5t21 65t41 51l21 18l61 -7q-71 -70 -71 -103z" />
    <glyph glyph-name="tilde" unicode="&#x2dc;" horiz-adv-x="236" 
d="M200 612q-21 0 -72.5 23.5t-64.5 23.5q-23 0 -62 -30l-13 -10l-18 48q50 52 91 52q21 0 73 -23t64 -23q21 0 58 29l13 9l17 -48q-46 -51 -86 -51z" />
    <glyph glyph-name="hungarumlaut" unicode="&#x2dd;" horiz-adv-x="236" 
d="M142 624l145 139l54 -43l-148 -138zM-51 624l145 138l54 -42l-147 -138z" />
    <glyph glyph-name="pi" unicode="&#x3c0;" 
d="M359 154v281h-156l-28 -435h-76l31 435q-54 0 -96 -10l-12 -3v63q59 15 142 15h235q65 0 115 10l16 4v-63q-28 -12 -96 -14v-283q0 -56 17 -74.5t70 -18.5v-65q-99 0 -130.5 31t-31.5 127z" />
    <glyph glyph-name="Wgrave" unicode="&#x1e80;" horiz-adv-x="886" 
d="M30 692h80l118 -624h29l141 618h90l141 -618h29l118 624h79l-140 -692h-141l-131 591l-131 -591h-141zM346 931l216 -100l-23 -53l-219 87z" />
    <glyph glyph-name="wgrave" unicode="&#x1e81;" horiz-adv-x="762" 
d="M31 500h75l101 -435h16l119 425h78l119 -425h17l100 435h75l-119 -500h-125l-106 391l-106 -391h-125zM265 740l216 -98l-21 -51l-221 85z" />
    <glyph glyph-name="Wacute" unicode="&#x1e82;" horiz-adv-x="886" 
d="M30 692h80l118 -624h29l141 618h90l141 -618h29l118 624h79l-140 -692h-141l-131 591l-131 -591h-141zM332 831l216 100l26 -66l-219 -87z" />
    <glyph glyph-name="wacute" unicode="&#x1e83;" horiz-adv-x="762" 
d="M31 500h75l101 -435h16l119 425h78l119 -425h17l100 435h75l-119 -500h-125l-106 391l-106 -391h-125zM277 642l216 98l26 -64l-221 -85z" />
    <glyph glyph-name="Wdieresis" unicode="&#x1e84;" horiz-adv-x="886" 
d="M30 692h80l118 -624h29l141 618h90l141 -618h29l118 624h79l-140 -692h-141l-131 591l-131 -591h-141zM304 808v90h73v-90h-73zM508 808v90h72v-90h-72z" />
    <glyph glyph-name="wdieresis" unicode="&#x1e85;" horiz-adv-x="762" 
d="M31 500h75l101 -435h16l119 425h78l119 -425h17l100 435h75l-119 -500h-125l-106 391l-106 -391h-125zM246 621v90h72v-90h-72zM446 621v90h73v-90h-73z" />
    <glyph glyph-name="uni1EAB" unicode="&#x1eab;" horiz-adv-x="501" 
d="M425 349v-256q3 -37 58 -44l-3 -59q-79 0 -119 40q-90 -40 -180 -40q-69 0 -105 39t-36 112t37 107.5t116 42.5l157 15v43q0 51 -22 73t-60 22q-80 0 -166 -10l-31 -3l-3 57q110 22 195 22t123.5 -39t38.5 -122zM117 145q0 -92 76 -92q68 0 134 23l23 8v165l-148 -14
q-45 -4 -65 -26t-20 -64zM87 562l123 140h51l124 -140h-75l-73 87l-75 -87h-75zM299 736q-21 0 -72.5 23.5t-64.5 23.5q-23 0 -62 -30l-13 -10l-18 48q50 52 91 52q21 0 73 -23t63 -23q22 0 60 29l12 9l17 -48q-46 -51 -86 -51z" />
    <glyph glyph-name="uni1EB0" unicode="&#x1eb0;" horiz-adv-x="594" 
d="M24 0l190 696h168l188 -695h-77l-52 174h-290l-51 -175h-76zM272 625l-103 -376h255l-102 376h-50zM234.5 830q25.5 -21 62 -21t61.5 21t26 54h70q-3 -59 -46 -95t-112 -36t-111.5 36t-45.5 95h69q1 -33 26.5 -54zM146 1082l216 -98l-21 -51l-221 85z" />
    <glyph glyph-name="uni1EC5" unicode="&#x1ec5;" horiz-adv-x="506" 
d="M257 58q51 0 155 7l29 2l2 -61q-114 -16 -195 -16q-108 0 -153 62.5t-45 194.5q0 263 209 263q101 0 151 -56.5t50 -177.5l-4 -58h-330q0 -82 30 -121t101 -39zM385 279q0 89 -29.5 126.5t-96.5 37.5q-133 0 -134 -164h260zM108 562l123 140h51l124 -140h-75l-73 87
l-75 -87h-75zM323 736q-21 0 -72.5 23.5t-64.5 23.5q-23 0 -62 -30l-13 -10l-18 48q50 52 91 52q21 0 73 -23t63 -23q22 0 60 29l12 9l17 -48q-46 -51 -86 -51z" />
    <glyph glyph-name="uni1ED7" unicode="&#x1ed7;" horiz-adv-x="528" 
d="M429.5 449q48.5 -61 48.5 -198t-46 -199t-168 -62t-168 62t-46 199t49 198t165.5 61t165 -61zM375 98.5q26 43.5 26 153.5t-29 151.5t-107.5 41.5t-108 -41.5t-29.5 -151t26.5 -153.5t111 -44t110.5 43.5zM110 562l123 140h51l124 -140h-75l-73 87l-75 -87h-75zM318 736
q-21 0 -72.5 23.5t-64.5 23.5q-23 0 -62 -30l-13 -10l-18 48q50 52 91 52q21 0 73 -23t64 -23q21 0 58 29l13 9l17 -48q-46 -51 -86 -51z" />
    <glyph glyph-name="Ygrave" unicode="&#x1ef2;" horiz-adv-x="538" 
d="M308 0h-77v291l-221 401h87l172 -324l172 324h87l-220 -401v-291zM166 931l216 -100l-23 -53l-219 87z" />
    <glyph glyph-name="ygrave" unicode="&#x1ef3;" horiz-adv-x="483" 
d="M25 500h75l125 -435h33l126 435h75l-208 -722h-75l65 222h-74zM130 740l216 -98l-21 -51l-221 85z" />
    <glyph glyph-name="uni1EF8" unicode="&#x1ef8;" horiz-adv-x="531" 
d="M305 0h-77v299l-220 397h86l172 -312l170 312h87l-218 -398v-298zM333 808q-21 0 -72.5 23.5t-64.5 23.5q-23 0 -62 -30l-13 -10l-18 48q50 52 91 52q21 0 73 -23t63 -23q22 0 60 29l12 9l17 -48q-46 -51 -86 -51z" />
    <glyph glyph-name="uni1EF9" unicode="&#x1ef9;" horiz-adv-x="483" 
d="M25 500h75l125 -428h33l126 428h75l-208 -722h-75l64 222h-73zM308 612q-21 0 -72.5 23.5t-64.5 23.5q-23 0 -62 -30l-13 -10l-18 48q50 52 91 52q21 0 73 -23t64 -23q21 0 58 29l13 9l17 -48q-46 -51 -86 -51z" />
    <glyph glyph-name="endash" unicode="&#x2013;" horiz-adv-x="631" 
d="M66 301h500v-66h-500v66z" />
    <glyph glyph-name="emdash" unicode="&#x2014;" horiz-adv-x="1131" 
d="M66 301h1000v-66h-1000v66z" />
    <glyph glyph-name="quoteleft" unicode="&#x2018;" horiz-adv-x="219" 
d="M174 708l-44 -219h-79l64 219h59z" />
    <glyph glyph-name="quoteright" unicode="&#x2019;" horiz-adv-x="216" 
d="M53 489l44 219h79l-64 -219h-59z" />
    <glyph glyph-name="quotesinglbase" unicode="&#x201a;" horiz-adv-x="218" 
d="M93 22l-9 -43h-16l13 43h12z" />
    <glyph glyph-name="quotedblleft" unicode="&#x201c;" horiz-adv-x="373" 
d="M327 708l-44 -219h-79l64 219h59zM174 708l-44 -219h-79l64 219h59z" />
    <glyph glyph-name="quotedblright" unicode="&#x201d;" horiz-adv-x="377" 
d="M53 490l44 219h79l-64 -219h-59zM213 490l44 219h79l-64 -219h-59z" />
    <glyph glyph-name="quotedblbase" unicode="&#x201e;" horiz-adv-x="359" 
d="M145 112l-44 -219h-79l64 219h59zM297 112l-44 -219h-79l64 219h59z" />
    <glyph glyph-name="dagger" unicode="&#x2020;" horiz-adv-x="478" 
d="M34 434v66h168v192h74v-192h168v-66h-168l-4 -510h-66l-4 510h-168z" />
    <glyph glyph-name="daggerdbl" unicode="&#x2021;" horiz-adv-x="521" 
d="M223 -76v192h-168v65h168v253h-168v66h168v192h75v-192h167v-66h-167v-253h168v-65h-168v-192h-75z" />
    <glyph glyph-name="bullet" unicode="&#x2022;" horiz-adv-x="473" 
d="M111 106v286h250v-286h-250z" />
    <glyph glyph-name="ellipsis" unicode="&#x2026;" horiz-adv-x="725" 
d="M67 0v114h82v-114h-82zM322 0v114h81v-114h-81zM576 0v114h82v-114h-82z" />
    <glyph glyph-name="perthousand" unicode="&#x2030;" horiz-adv-x="835" 
d="M148 619q-27 0 -38.5 -21t-11.5 -66q0 -90 50 -90q27 0 38 22t11 68t-11 66.5t-38 20.5zM165 -4l205 685l48 -16l-206 -683zM148 670q110 0 110 -138q0 -71 -29 -106t-81 -35q-110 0 -110 139.5t110 139.5zM322 132q0 137 110 137t110 -138q0 -70 -29 -105.5t-81 -35.5
t-81 35.5t-29 106.5zM382 132q0 -91 50 -91t50 90q0 45 -11.5 66t-38.5 21t-38.5 -20.5t-11.5 -65.5zM580 132q0 137 109.5 137t109.5 -138q0 -70 -29 -105.5t-80.5 -35.5t-80.5 35.5t-29 106.5zM640 132q0 -91 50 -91q27 0 38 22t11 68t-11 66.5t-38 20.5t-38.5 -20.5
t-11.5 -65.5z" />
    <glyph glyph-name="guilsinglleft" unicode="&#x2039;" horiz-adv-x="301" 
d="M234 344l-124 -94l124 -105v-78l-189 151v60l189 143v-77z" />
    <glyph glyph-name="guilsinglright" unicode="&#x203a;" horiz-adv-x="301" 
d="M191 254l-124 94v77l189 -143v-60l-189 -151v78z" />
    <glyph glyph-name="fraction" unicode="&#x2044;" horiz-adv-x="0" 
d="M-224 28l392 632l40 -26l-393 -631z" />
    <glyph glyph-name="zerosuperior" unicode="&#x2070;" horiz-adv-x="280" 
d="M51 762q30 38 89 38t88.5 -38t29.5 -128.5t-29.5 -128t-88.5 -37.5t-89 38t-30 128t30 128zM180.5 717.5q-12.5 24.5 -40.5 24.5t-41 -24.5t-13 -84.5t13.5 -83.5t40.5 -23.5t40 23.5t13 83.5t-12.5 84.5z" />
    <glyph glyph-name="foursuperior" unicode="&#x2074;" horiz-adv-x="280" 
d="M165 478v48h-141v54l69 210h70l-73 -206h75l5 89h58v-89h27v-58h-27v-48h-63z" />
    <glyph glyph-name="fivesuperior" unicode="&#x2075;" horiz-adv-x="280" 
d="M146 621q-26 0 -52 -15l-50 6l10 178h187v-56h-136l-5 -73q30 15 58 15q93 0 93 -98q0 -108 -106 -108q-46 0 -91 10l-16 3l5 52q55 -9 96 -9q47 0 47 47.5t-40 47.5z" />
    <glyph glyph-name="sixsuperior" unicode="&#x2076;" horiz-adv-x="280" 
d="M93 669q42 14 60 14q102 0 102 -103q0 -52 -29.5 -82t-80.5 -30q-116 0 -116 161q0 89 29.5 130t93.5 41q32 0 76 -8l14 -2l-4 -54q-50 7 -84 7q-60 0 -61 -74zM93 612q3 -87 50.5 -87t47.5 52t-40 52q-30 0 -44 -8t-14 -9z" />
    <glyph glyph-name="sevensuperior" unicode="&#x2077;" horiz-adv-x="280" 
d="M30 728v62h206v-77l-105 -244l-69 13l102 225v21h-134z" />
    <glyph glyph-name="eightsuperior" unicode="&#x2078;" horiz-adv-x="280" 
d="M140 800q113 0 113 -85q0 -60 -43 -73q48 -14 48 -75q0 -99 -118 -99t-118 95q0 59 48 80q-43 16 -43 72q0 85 113 85zM140 522q53 0 53 45q0 37 -39 49h-28q-39 -12 -39 -51q0 -43 53 -43zM140 746q-50 0 -50 -37q0 -31 36 -44h28q36 12 36 43q0 38 -50 38z" />
    <glyph glyph-name="ninesuperior" unicode="&#x2079;" horiz-adv-x="280" 
d="M188 598q-43 -12 -61 -12q-49 0 -75 27t-26 78t30 80t80 29q118 0 118 -167q0 -85 -29.5 -125t-94.5 -40q-36 0 -78 9l-14 3l4 53q45 -7 82 -7q62 0 64 72zM102.5 653q12.5 -15 33 -15t54.5 14q-1 91 -52 91q-48 0 -48 -52q0 -23 12.5 -38z" />
    <glyph glyph-name="zeroinferior" unicode="&#x2080;" horiz-adv-x="280" 
d="M51 184q30 38 89 38t88.5 -38t29.5 -128.5t-29.5 -128t-88.5 -37.5t-89 38t-30 128t30 128zM180.5 139.5q-12.5 24.5 -40.5 24.5t-41 -24.5t-13 -84.5t13.5 -83.5t40.5 -23.5t40 23.5t13 83.5t-12.5 84.5z" />
    <glyph glyph-name="oneinferior" unicode="&#x2081;" horiz-adv-x="280" 
d="M207 212v-312h-64v242l-68 -47l-29 47l101 70h60z" />
    <glyph glyph-name="twoinferior" unicode="&#x2082;" horiz-adv-x="280" 
d="M248 -100h-209v55l88 87q51 49 51 83q0 37 -49 37l-85 -9l-2 57q59 12 106 12q96 0 96 -91q0 -33 -14 -57.5t-47 -54.5l-63 -61h128v-58z" />
    <glyph glyph-name="threeinferior" unicode="&#x2083;" horiz-adv-x="280" 
d="M136 222q105 0 105 -84q0 -51 -39 -73q24 -8 35.5 -24.5t11.5 -53.5q0 -97 -106 -97q-43 0 -95 8l-18 2l4 56q57 -8 103.5 -8t46.5 42.5t-47 42.5h-65v53h65q14 0 26 13t12 31q0 34 -45 34l-92 -7l-4 55q59 10 102 10z" />
    <glyph glyph-name="fourinferior" unicode="&#x2084;" horiz-adv-x="280" 
d="M172 -100v48h-141v54l69 210h70l-73 -206h75l5 89h58v-89h27v-58h-27v-48h-63z" />
    <glyph glyph-name="fiveinferior" unicode="&#x2085;" horiz-adv-x="280" 
d="M138 43q-26 0 -52 -15l-50 6l10 178h187v-56h-136l-5 -73q30 15 58 15q93 0 93 -98q0 -108 -106 -108q-46 0 -91 10l-16 3l5 52q55 -9 96 -9q47 0 47 47.5t-40 47.5z" />
    <glyph glyph-name="sixinferior" unicode="&#x2086;" horiz-adv-x="280" 
d="M90 91q42 14 60 14q102 0 102 -103q0 -52 -29.5 -82t-80.5 -30q-116 0 -116 161q0 89 29.5 130t93.5 41q32 0 75 -8l15 -2l-4 -54q-50 7 -84 7q-60 0 -61 -74zM90 34q3 -87 50.5 -87t47.5 52t-40 52q-30 0 -44 -8t-14 -9z" />
    <glyph glyph-name="seveninferior" unicode="&#x2087;" horiz-adv-x="280" 
d="M38 150v62h206v-77l-105 -244l-69 13l102 225v21h-134z" />
    <glyph glyph-name="eightinferior" unicode="&#x2088;" horiz-adv-x="280" 
d="M139 222q113 0 113 -85q0 -60 -43 -73q48 -14 48 -75q0 -99 -118 -99t-118 95q0 59 48 80q-43 16 -43 72q0 85 113 85zM139 -56q53 0 53 45q0 37 -39 49h-28q-39 -12 -39 -51q0 -43 53 -43zM139 168q-50 0 -50 -37q0 -31 36 -44h28q36 12 36 43q0 38 -50 38z" />
    <glyph glyph-name="nineinferior" unicode="&#x2089;" horiz-adv-x="280" 
d="M186 20q-43 -12 -61 -12q-49 0 -75 27t-26 78t30 80t80 29q118 0 118 -167q0 -85 -29.5 -125t-94.5 -40q-36 0 -78 9l-14 3l4 53q45 -7 82 -7q62 0 64 72zM100.5 75q12.5 -15 33 -15t54.5 14q-1 91 -52 91q-48 0 -48 -52q0 -23 12.5 -38z" />
    <glyph glyph-name="Euro" unicode="&#x20ac;" 
d="M30 378v61h64q12 119 65.5 175t171.5 56q84 0 182 -21l-3 -62q-91 17 -173 17t-119.5 -39t-46.5 -126h286v-61h-290q-1 -16 -1 -50v-45h291v-61h-287q9 -87 46.5 -126.5t120.5 -39.5t173 18l3 -63q-99 -21 -182 -21q-118 0 -171.5 57t-66.5 175h-63v61h60q-1 14 -1 46.5
t1 48.5h-60z" />
    <glyph glyph-name="trademark" unicode="&#x2122;" horiz-adv-x="677" 
d="M91 580v50h200v-50h-66v-248h-55v248h-79zM322 331v299h72l66 -208l71 208h70v-299h-52v224l-66 -209h-43l-66 209v-224h-52z" />
    <glyph glyph-name="Omega" unicode="&#x2126;" 
d="M168 57q-109 191 -109 319q0 154 48 224.5t173 70.5t173 -70.5t48 -224.5q0 -65 -27.5 -144.5t-55.5 -127.5l-27 -47h124v-66h-197v57q38 70 71 163.5t33 144.5q0 135 -27.5 190.5t-115 55.5t-114.5 -55t-27 -191q0 -51 26 -128t52 -128l26 -52v-57h-197v66h123z" />
    <glyph glyph-name="partialdiff" unicode="&#x2202;" 
d="M266 728q121 0 177.5 -87t56.5 -278t-55 -281.5t-169 -90.5t-172 57.5t-58 162t56 162t154 57.5q72 0 141 -22l23 -8q-4 141 -41 201.5t-126 60.5q-32 0 -71.5 -11t-63.5 -23l-23 -11l-4 61q30 18 82.5 34t92.5 16zM421 334q-80 30 -152 30t-108 -41t-36 -113
t36.5 -112.5t111.5 -40.5t111 67.5t37 209.5z" />
    <glyph glyph-name="Delta" unicode="&#x2206;" 
d="M506 0h-453v57l159 603h135l159 -604v-56zM292 595h-26l-136 -529h298z" />
    <glyph glyph-name="product" unicode="&#x220f;" 
d="M382 -163v849h-206v-849h-76v849h-70v68h500v-68h-71v-849h-77z" />
    <glyph glyph-name="summation" unicode="&#x2211;" 
d="M44 753h470v-68h-390v-22l257 -329v-55l-257 -348v-25h390v-69h-470v101l267 370l-267 346v99z" />
    <glyph glyph-name="minus" unicode="&#x2212;" 
d="M66 217v68h428v-68h-428z" />
    <glyph glyph-name="radical" unicode="&#x221a;" 
d="M4 378v68h122l128 -517h10l227 848h76l-248 -913h-122l-134 514h-59z" />
    <glyph glyph-name="infinity" unicode="&#x221e;" 
d="M155 121q-125 0 -125 171q0 83 31 127t92 44q45 0 74.5 -26t52.5 -80q23 54 52 80t75 26q61 0 92 -44t31 -127q0 -171 -125 -171q-44 0 -73 25.5t-52 78.5q-23 -59 -50 -81.5t-75 -22.5zM162 396q-60 0 -60 -104t60 -104q34 0 49.5 20t27 48t11.5 30l3 6q-25 61 -41 80
q-17 18 -28 21t-22 3zM398 188q60 0 60 104t-60 104q-23 0 -34 -9.5t-16 -15t-12 -18t-10 -18.5q-9 -18 -19 -43q25 -61 41 -80q17 -18 28 -21t22 -3z" />
    <glyph glyph-name="integral" unicode="&#x222b;" 
d="M316 -6q0 -100 -33.5 -140.5t-102.5 -40.5l-88 8l3 64q39 -4 75 -4t53 25t17 89v581q0 113 32.5 158.5t103.5 45.5q43 0 78 -6l14 -3l-3 -64q-38 5 -75.5 5t-55.5 -30.5t-18 -106.5v-581z" />
    <glyph glyph-name="approxequal" unicode="&#x2248;" 
d="M379 270q-27 0 -103 31t-95 31q-36 0 -88 -36l-17 -11l-12 62q63 53 117 53q30 0 105 -30.5t94 -30.5q35 0 88 35l17 11l10 -61q-63 -54 -116 -54zM379 85q-27 0 -103 31t-95 31t-45 -11.5t-43 -23.5l-17 -12l-12 62q63 53 117 53q30 0 105 -30.5t94 -30.5q35 0 88 34
l17 12l10 -61q-63 -54 -116 -54z" />
    <glyph glyph-name="notequal" unicode="&#x2260;" 
d="M64 309v69h240l68 155l60 -24l-58 -131h122v-69h-152l-50 -116h202v-69h-232l-66 -152l-61 24l56 128h-129v69h159l51 116h-210z" />
    <glyph glyph-name="lessequal" unicode="&#x2264;" 
d="M488 422l-335 -102l335 -110v-76l-423 150v68l423 145v-75zM65 22v68h423v-68h-423z" />
    <glyph glyph-name="greaterequal" unicode="&#x2265;" 
d="M406 320l-335 102v75l423 -145v-68l-423 -150v76zM494 90v-68h-423v68h423z" />
    <glyph glyph-name="lozenge" unicode="&#x25ca;" 
d="M428 329l-100 67h10l168 -67l-168 -65h-9zM54 329l168 67h9l-99 -67l98 -65h-8zM291 239h-23l-38 25h99zM231 396l37 25h23l37 -25h-97z" />
    <glyph glyph-name="dotlessj" unicode="&#xf6be;" horiz-adv-x="219" 
d="M73 13v487h74v-488q0 -92 -33 -138t-133 -97l-30 58q77 45 99.5 77t22.5 101z" />
    <glyph glyph-name="commaaccent" unicode="&#xf6c3;" horiz-adv-x="170" 
d="M23 -285l41 207h74l-50 -207h-65z" />
    <glyph glyph-name="CR" horiz-adv-x="235" 
 />
    <glyph glyph-name="DLE" horiz-adv-x="0" 
 />
    <glyph glyph-name="zero.pnum" horiz-adv-x="532" 
d="M108 448q55 61 159 61t157.5 -59t53.5 -203t-54.5 -200t-156.5 -56t-158 56.5t-56 198t55 202.5zM266 444q-70 0 -106 -42.5t-36 -153t36 -151.5t107 -41t105.5 40t34.5 133.5t-17.5 138.5t-46.5 60.5t-77 15.5z" />
    <glyph glyph-name="one.pnum" horiz-adv-x="354" 
d="M278 500v-500h-71v419l-152 -90l-29 57l189 114h63z" />
    <glyph glyph-name="two.pnum" horiz-adv-x="473" 
d="M423 0h-371v63l172 141q62 49 87 82t25 76t-28 61.5t-94 18.5q-34 0 -95.5 -8.5t-61.5 -9.5l-5 64q107 21 181 21q178 0 178 -143q0 -58 -26.5 -96t-85.5 -84l-150 -121h274v-65z" />
    <glyph glyph-name="three.pnum" horiz-adv-x="483" 
d="M57 492q104 18 186 18t127.5 -29t45.5 -96q0 -52 -37 -89q-11 -11 -22 -16.5l-17.5 -9t-7.5 -3.5q44 -14 71.5 -42t27.5 -84q0 -75 -50 -112.5t-137 -37.5q-74 0 -164 15l-30 5l9 64q104 -15 185 -15q116 1 116 85q0 46 -31 63.5t-83 20.5h-126v63h125q42 2 71 20.5
t29 58.5t-26.5 56t-71.5 16q-87 0 -157 -11l-26 -4z" />
    <glyph glyph-name="four.pnum" horiz-adv-x="473" 
d="M314 -20v113h-278v55l156 352h74l-152 -339h200v133h71v-133h53v-68h-53v-113h-71z" />
    <glyph glyph-name="five.pnum" horiz-adv-x="490" 
d="M423 502v-72h-279l-14 -144q68 31 130 31q183 0 183 -153q0 -83 -49.5 -128t-138.5 -45q-71 0 -169 18l-32 6l9 64q119 -20 190 -20q113 0 113 101q0 91 -113 91q-26 0 -60.5 -8.5t-56.5 -17.5l-21 -9l-54 12l18 274h344z" />
    <glyph glyph-name="six.pnum" horiz-adv-x="493" 
d="M415 434q-88 12 -153.5 12t-102 -38t-36.5 -128q80 37 146 37q179 0 179 -160q0 -80 -53 -123.5t-148 -43.5q-194 0 -194 259.5t210 259.5q73 0 135 -11l22 -4zM144 228l-21 -8q3 -167 128.5 -167t125.5 104q0 50 -28.5 72t-86.5 22t-118 -23z" />
    <glyph glyph-name="seven.pnum" horiz-adv-x="411" 
d="M35 437v64h343v-85l-213 -425l-62 18l207 408v20h-275z" />
    <glyph glyph-name="eight.pnum" horiz-adv-x="508" 
d="M63 378q0 131 191.5 131t191.5 -132q0 -82 -89 -115q48 -19 73 -46t25 -82q0 -144 -201 -144t-201 140q0 55 23.5 82.5t70.5 49.5q-84 34 -84 116zM157.5 70.5q33.5 -18.5 97 -18.5t96.5 19t33 65t-22 64t-70 30h-83q-43 -11 -64 -32.5t-21 -65t33.5 -62zM253 447
q-60 0 -89.5 -17.5t-29.5 -55t17.5 -56t57.5 -30.5h83q42 10 62.5 29t20.5 55q0 75 -122 75z" />
    <glyph glyph-name="nine.pnum" horiz-adv-x="486" 
d="M223 55q137 0 137 167q-69 -34 -146.5 -34t-122.5 40t-45 117t51 121t138 44q198 0 198 -259.5t-210 -259.5q-69 0 -135 13l-22 5l6 60q81 -14 151 -14zM229 251q54 0 111 25l19 8q-2 82 -32.5 122.5t-93.5 40.5q-116 0 -116 -103q0 -93 112 -93z" />
    <glyph glyph-name="questiondown.cap" horiz-adv-x="438" 
d="M36 151q0 65 17.5 98.5t71 78t73.5 71t20 58.5v35h63q13 -27 13 -61t-23 -63.5t-74 -73.5t-68 -70t-17 -72.5t32 -69.5t101 -23q53 0 129 17l26 6l5 -61q-101 -30 -167 -30q-103 0 -152.5 37.5t-49.5 122.5zM292 692v-112h-82v112h82z" />
    <glyph glyph-name="endash.cap" horiz-adv-x="633" 
d="M67 331h500v-66h-500v66z" />
    <glyph glyph-name="emdash.cap" horiz-adv-x="1133" 
d="M67 331h1000v-66h-1000v66z" />
    <glyph glyph-name="periodcentered.cap" horiz-adv-x="216" 
d="M67 278v114h82v-114h-82z" />
    <glyph glyph-name="exclamdown.cap" horiz-adv-x="247" 
d="M164 692v-112h-82v112h82zM158 464l5 -464h-79l5 464h69z" />
    <glyph glyph-name="parenleft.cap" horiz-adv-x="264" 
d="M155 -95q-104 234 -104 426q0 96 26 208.5t52 176.5l26 64h72q-35 -92 -65 -227.5t-30 -221t24 -192t48 -170.5l23 -64h-72z" />
    <glyph glyph-name="parenright.cap" horiz-adv-x="264" 
d="M109 785q104 -234 104 -426q0 -96 -26 -208.5t-52 -176.5l-26 -64h-72q35 92 65 227.5t30 221t-23.5 192t-47.5 170.5l-24 64h72z" />
    <glyph glyph-name="bracketleft.cap" horiz-adv-x="329" 
d="M289 779v-67h-134v-738h134v-67h-210v872h210z" />
    <glyph glyph-name="bracketright.cap" horiz-adv-x="329" 
d="M40 712v67h210v-872h-210v67h134v738h-134z" />
    <glyph glyph-name="braceleft.cap" horiz-adv-x="352" 
d="M198 605l7 -123q0 -64 -21.5 -93t-83.5 -47q61 -18 83 -48.5t22 -93.5l-7 -116q0 -56 24.5 -84.5t90.5 -32.5l-2 -65q-101 4 -143.5 44.5t-42.5 130.5l7 122q0 43 -25 69.5t-82 42.5v61q57 13 82 39.5t25 69.5l-7 128q0 92 42.5 132t144.5 44l1 -65q-66 -4 -90.5 -31.5
t-24.5 -83.5z" />
    <glyph glyph-name="braceright.cap" horiz-adv-x="352" 
d="M154 80l-7 123q0 64 21.5 93t83.5 47q-61 18 -83 48.5t-22 93.5l7 116q0 56 -24.5 84.5t-90.5 32.5l2 65q101 -4 143.5 -44.5t42.5 -130.5l-7 -122q0 -43 25 -69.5t82 -42.5v-61q-57 -13 -82 -39.5t-25 -69.5l7 -128q0 -92 -42.5 -132t-144.5 -44l-1 65q66 4 90.5 31.5
t24.5 83.5z" />
    <glyph glyph-name="grave.cap" horiz-adv-x="236" 
d="M36 931l216 -100l-23 -53l-219 87z" />
    <glyph glyph-name="acute.cap" horiz-adv-x="236" 
d="M12 831l216 100l26 -66l-219 -87z" />
    <glyph glyph-name="circumflex.cap" horiz-adv-x="462" 
d="M54 791l134 135h65l134 -135h-84l-82 80l-83 -80h-84z" />
    <glyph glyph-name="caron.cap" horiz-adv-x="236" 
d="M99 791l-134 135h84l83 -80l82 80h84l-134 -135h-65z" />
    <glyph glyph-name="tilde.cap" horiz-adv-x="236" 
d="M220 803q-21 0 -83 27t-75 27q-22 0 -61 -36l-13 -12l-17 56q19 22 45 40t49 18t84 -27t71 -27q20 0 58 35l12 11l18 -56q-47 -56 -88 -56z" />
    <glyph glyph-name="dieresis.cap" horiz-adv-x="236" 
d="M-22 808v90h73v-90h-73zM182 808v90h72v-90h-72z" />
    <glyph glyph-name="macron.cap" horiz-adv-x="236" 
d="M-22 812v58h311v-58h-311z" />
    <glyph glyph-name="breve.cap" horiz-adv-x="236" 
d="M74.5 864q25.5 -21 62 -21t61.5 21t26 54h70q-3 -59 -46 -95t-112 -36t-111.5 36t-45.5 95h69q1 -33 26.5 -54z" />
    <glyph glyph-name="ring.cap" horiz-adv-x="236" 
d="M217 859q33 -28 33 -77.5t-33 -77.5t-85.5 -28t-85.5 28t-33 77.5t33.5 77.5t85.5 28t85 -28zM70 782q0 -25 16.5 -39.5t45.5 -14.5t45.5 14.5t16.5 39.5t-16.5 39t-45.5 14q-62 0 -62 -53z" />
    <glyph glyph-name="hungarumlaut.cap" horiz-adv-x="236" 
d="M157 785l142 131l55 -35l-146 -129zM-40 785l142 132l54 -35l-145 -129z" />
    <glyph glyph-name="dotaccent.cap" horiz-adv-x="236" 
d="M81 801v87h74v-87h-74z" />
    <glyph glyph-name="zero.numr" horiz-adv-x="280" 
d="M51 662q30 38 89 38t88.5 -38t29.5 -128.5t-29.5 -128t-88.5 -37.5t-89 38t-30 128t30 128zM180.5 617.5q-12.5 24.5 -40.5 24.5t-41 -24.5t-13 -84.5t13.5 -83.5t40.5 -23.5t40 23.5t13 83.5t-12.5 84.5z" />
    <glyph glyph-name="one.numr" horiz-adv-x="280" 
d="M202 690v-312h-64v242l-68 -47l-29 47l101 70h60z" />
    <glyph glyph-name="two.numr" horiz-adv-x="280" 
d="M243 378h-209v55l88 87q51 49 51 83q0 37 -49 37l-85 -9l-2 57q59 12 107 12q95 0 95 -91q0 -33 -14 -57.5t-47 -54.5l-63 -61h128v-58z" />
    <glyph glyph-name="three.numr" horiz-adv-x="280" 
d="M139 700q105 0 105 -84q0 -51 -39 -73q24 -8 35.5 -24.5t11.5 -53.5q0 -97 -106 -97q-43 0 -96 8l-17 2l4 56q57 -8 103.5 -8t46.5 42.5t-47 42.5h-65v53h65q14 0 26 13t12 31q0 34 -45 34l-92 -7l-4 55q59 10 102 10z" />
    <glyph glyph-name="four.numr" horiz-adv-x="280" 
d="M165 378v48h-141v54l69 210h70l-73 -206h75l5 89h58v-89h27v-58h-27v-48h-63z" />
    <glyph glyph-name="five.numr" horiz-adv-x="280" 
d="M145 521q-26 0 -52 -15l-50 6l10 178h187v-56h-136l-5 -73q30 15 58 15q93 0 93 -98q0 -108 -106 -108q-46 0 -90 10l-17 3l5 52q55 -9 96 -9q47 0 47 47.5t-40 47.5z" />
    <glyph glyph-name="six.numr" horiz-adv-x="280" 
d="M92 569q42 14 60 14q102 0 102 -103q0 -52 -29.5 -82t-80.5 -30q-116 0 -116 161q0 89 29.5 130t93.5 41q32 0 75 -8l15 -2l-4 -54q-50 7 -84 7q-60 0 -61 -74zM92 512q3 -87 50.5 -87t47.5 52t-40 52q-30 0 -44 -8t-14 -9z" />
    <glyph glyph-name="seven.numr" horiz-adv-x="280" 
d="M40 628v62h206v-77l-105 -244l-69 13l102 225v21h-134z" />
    <glyph glyph-name="eight.numr" horiz-adv-x="280" 
d="M140 700q113 0 113 -85q0 -60 -43 -73q48 -14 48 -75q0 -99 -118 -99t-118 95q0 59 48 80q-43 16 -43 72q0 85 113 85zM140 422q53 0 53 45q0 37 -39 49h-28q-39 -12 -39 -51q0 -43 53 -43zM140 646q-50 0 -50 -37q0 -31 36 -44h28q36 12 36 43q0 38 -50 38z" />
    <glyph glyph-name="nine.numr" horiz-adv-x="280" 
d="M190 498q-43 -12 -61 -12q-49 0 -75 27t-26 78t30 80t80 29q118 0 118 -167q0 -85 -29.5 -125t-94.5 -40q-36 0 -78 9l-14 3l4 53q45 -7 82 -7q62 0 64 72zM104.5 553q12.5 -15 33 -15t54.5 14q-1 91 -52 91q-48 0 -48 -52q0 -23 12.5 -38z" />
    <glyph glyph-name="zero.slash" 
d="M253 280v96h62v-96h-62zM279 671q82 0 133 -31q108 -64 108 -320q0 -181 -60 -255.5t-180 -74.5t-180.5 73.5t-60.5 262t59.5 267t180.5 78.5zM280 602q-57 0 -90 -24q-71 -49 -71 -259q0 -148 39 -204.5t122 -56.5t122 57t39 211.5t-37.5 215t-123.5 60.5z" />
    <glyph glyph-name="at.cap" horiz-adv-x="972" 
d="M931 360v-13q0 -212 -67 -267q-24 -19 -48.5 -25t-56 -6t-54 6t-34.5 15q-24 18 -33 39q-98 -59 -174 -59q-37 0 -64.5 9t-55.5 33q-56 51 -56 196t45 208.5t158 63.5q43 0 97 -20l18 -6v16h75v-191q0 -175 11 -208q5 -13 14.5 -24t20.5 -13t38 -2t45.5 13t31.5 66
t13 156v14q0 185 -82 268t-272.5 83t-283 -94.5t-92.5 -307t88 -302.5t289 -90l143 10l3 -67q-94 -9 -146 -9q-116 0 -196.5 22t-139.5 74q-117 103 -117 368q0 241 115 351.5t338 110.5t326 -102.5t103 -315.5zM469 116q43 0 146 46q-9 54 -9 173v139q-60 20 -103 20
q-81 0 -110 -46t-29 -149q0 -183 105 -183z" />
    <glyph glyph-name="zero.dnom" horiz-adv-x="280" 
d="M51 284q30 38 89 38t88.5 -38t29.5 -128.5t-29.5 -128t-88.5 -37.5t-89 38t-30 128t30 128zM180.5 239.5q-12.5 24.5 -40.5 24.5t-41 -24.5t-13 -84.5t13.5 -83.5t40.5 -23.5t40 23.5t13 83.5t-12.5 84.5z" />
    <glyph glyph-name="one.dnom" horiz-adv-x="280" 
d="M204 312v-312h-64v242l-68 -47l-29 47l101 70h60z" />
    <glyph glyph-name="two.dnom" horiz-adv-x="280" 
d="M247 0h-209v55l88 87q51 49 51 83q0 37 -49 37l-85 -9l-2 57q59 12 107 12q95 0 95 -91q0 -33 -14 -57.5t-47 -54.5l-63 -61h128v-58z" />
    <glyph glyph-name="three.dnom" horiz-adv-x="280" 
d="M139 322q105 0 105 -84q0 -51 -39 -73q24 -8 35.5 -24.5t11.5 -53.5q0 -97 -106 -97q-43 0 -96 8l-17 2l4 56q57 -8 103.5 -8t46.5 42.5t-47 42.5h-65v53h65q14 0 26 13t12 31q0 34 -45 34l-92 -7l-4 55q59 10 102 10z" />
    <glyph glyph-name="four.dnom" horiz-adv-x="280" 
d="M166 0v48h-141v54l69 210h70l-73 -206h75l5 89h58v-89h27v-58h-27v-48h-63z" />
    <glyph glyph-name="five.dnom" horiz-adv-x="280" 
d="M141 143q-26 0 -52 -15l-50 6l10 178h187v-56h-136l-5 -73q30 15 58 15q93 0 93 -98q0 -108 -106 -108q-46 0 -90 10l-17 3l5 52q55 -9 96 -9q47 0 47 47.5t-40 47.5z" />
    <glyph glyph-name="six.dnom" horiz-adv-x="280" 
d="M88 191q42 14 60 14q102 0 102 -103q0 -52 -29.5 -82t-80.5 -30q-116 0 -116 161q0 89 29.5 130t93.5 41q32 0 75 -8l15 -2l-4 -54q-50 7 -84 7q-60 0 -61 -74zM88 134q3 -87 50.5 -87t47.5 52t-40 52q-30 0 -44 -8t-14 -9z" />
    <glyph glyph-name="seven.dnom" horiz-adv-x="280" 
d="M40 250v62h206v-77l-105 -244l-69 13l102 225v21h-134z" />
    <glyph glyph-name="eight.dnom" horiz-adv-x="280" 
d="M140 322q113 0 113 -85q0 -60 -43 -73q48 -14 48 -75q0 -99 -118 -99t-118 95q0 59 48 80q-43 16 -43 72q0 85 113 85zM140 44q53 0 53 45q0 37 -39 49h-28q-39 -12 -39 -51q0 -43 53 -43zM140 268q-50 0 -50 -37q0 -31 36 -44h28q36 12 36 43q0 38 -50 38z" />
    <glyph glyph-name="nine.dnom" horiz-adv-x="280" 
d="M187 120q-43 -12 -61 -12q-49 0 -75 27t-26 78t30 80t80 29q118 0 118 -167q0 -85 -29.5 -125t-94.5 -40q-36 0 -78 9l-14 3l4 53q45 -7 82 -7q62 0 64 72zM101.5 175q12.5 -15 33 -15t54.5 14q-1 91 -52 91q-48 0 -48 -52q0 -23 12.5 -38z" />
    <glyph glyph-name="hyphen.cap" horiz-adv-x="438" 
d="M68 270v70h303v-70h-303z" />
    </font>
</defs>
</svg>
